SplineFontDB: 3.2
FontName: LucidaTypewriter14-Bold
FullName: Lucida Typewriter 14 Bold
FamilyName: Lucida Typewriter 14
Weight: Bold
Copyright: Copyright Bigelow & Holmes 1986, 1985.
UComments: "2021-2-2: Created with FontForge (http://fontforge.org)"
Version: 001.000
ItalicAngle: 0
UnderlinePosition: -100
UnderlineWidth: 50
Ascent: 875
Descent: 125
InvalidEm: 0
LayerCount: 2
Layer: 0 0 "Back" 1
Layer: 1 0 "Fore" 0
XUID: [1021 536 641525880 9354075]
StyleMap: 0x0020
FSType: 0
OS2Version: 0
OS2_WeightWidthSlopeOnly: 0
OS2_UseTypoMetrics: 1
CreationTime: 1612276539
ModificationTime: 1612276540
PfmFamily: 48
TTFWeight: 700
TTFWidth: 5
LineGap: 0
VLineGap: 90
Panose: 2 0 8 9 0 0 0 0 0 0
OS2TypoAscent: 875
OS2TypoAOffset: 1
OS2TypoDescent: -125
OS2TypoDOffset: 1
OS2TypoLinegap: 0
OS2WinAscent: 875
OS2WinAOffset: 1
OS2WinDescent: 125
OS2WinDOffset: 1
HheadAscent: 875
HheadAOffset: 1
HheadDescent: -125
HheadDOffset: 1
OS2SubXSize: 650
OS2SubYSize: 700
OS2SubXOff: 0
OS2SubYOff: 140
OS2SupXSize: 650
OS2SupYSize: 700
OS2SupXOff: 0
OS2SupYOff: 480
OS2StrikeYSize: 49
OS2StrikeYPos: 258
OS2Vendor: 'PfEd'
DEI: 91125
Encoding: UnicodeBmp
UnicodeInterp: none
NameList: AGL For New Fonts
DisplaySize: 14
AntiAlias: 1
FitToEm: 0
BeginChars: 65536 873

StartChar: exclam
Encoding: 33 33 2
Width: 562
VWidth: 875
Flags: HW
LayerCount: 2
Back
Fore
SplineSet
187.5 562.875 m 1
 312.5 562.875 l 1
 312.5 625.375 l 1
 187.5 625.375 l 1
 187.5 562.875 l 1025
187.5 500.375 m 1
 312.5 500.375 l 1
 312.5 562.875 l 1
 187.5 562.875 l 1
 187.5 500.375 l 1025
187.5 437.875 m 1
 312.5 437.875 l 1
 312.5 500.375 l 1
 187.5 500.375 l 1
 187.5 437.875 l 1025
187.5 375.375 m 1
 312.5 375.375 l 1
 312.5 437.875 l 1
 187.5 437.875 l 1
 187.5 375.375 l 1025
187.5 312.875 m 1
 312.5 312.875 l 1
 312.5 375.375 l 1
 187.5 375.375 l 1
 187.5 312.875 l 1025
187.5 250.375 m 1
 312.5 250.375 l 1
 312.5 312.875 l 1
 187.5 312.875 l 1
 187.5 250.375 l 1025
187.5 187.875 m 1
 250 187.875 l 1
 250 250.375 l 1
 187.5 250.375 l 1
 187.5 187.875 l 1025
187.5 62.875 m 1
 312.5 62.875 l 1
 312.5 125.375 l 1
 187.5 125.375 l 1
 187.5 62.875 l 1025
187.5 0.375 m 1
 187.5 62.875 l 1
 312.5 62.875 l 1
 312.5 0.375 l 1
 187.5 0.375 l 1
EndSplineSet
EndChar

StartChar: quotedbl
Encoding: 34 34 3
Width: 562
VWidth: 875
Flags: HW
LayerCount: 2
Back
Fore
SplineSet
187.5 625.375 m 1
 250 625.375 l 1
 250 687.875 l 1
 187.5 687.875 l 1
 187.5 625.375 l 1025
375 625.375 m 1
 437.5 625.375 l 1
 437.5 687.875 l 1
 375 687.875 l 1
 375 625.375 l 1025
187.5 562.875 m 1
 250 562.875 l 1
 250 625.375 l 1
 187.5 625.375 l 1
 187.5 562.875 l 1025
375 562.875 m 1
 437.5 562.875 l 1
 437.5 625.375 l 1
 375 625.375 l 1
 375 562.875 l 1025
187.5 500.375 m 1
 250 500.375 l 1
 250 562.875 l 1
 187.5 562.875 l 1
 187.5 500.375 l 1025
375 500.375 m 1
 437.5 500.375 l 1
 437.5 562.875 l 1
 375 562.875 l 1
 375 500.375 l 1025
187.5 437.875 m 1
 250 437.875 l 1
 250 500.375 l 1
 187.5 500.375 l 1
 187.5 437.875 l 1025
375 437.875 m 1
 375 500.375 l 1
 437.5 500.375 l 1
 437.5 437.875 l 1
 375 437.875 l 1
EndSplineSet
EndChar

StartChar: numbersign
Encoding: 35 35 4
Width: 562
VWidth: 875
Flags: HW
LayerCount: 2
Back
Fore
SplineSet
187.5 562.875 m 1
 312.5 562.875 l 1
 312.5 625.375 l 1
 187.5 625.375 l 1
 187.5 562.875 l 1025
375 562.875 m 1
 500 562.875 l 1
 500 625.375 l 1
 375 625.375 l 1
 375 562.875 l 1025
187.5 500.375 m 1
 312.5 500.375 l 1
 312.5 562.875 l 1
 187.5 562.875 l 1
 187.5 500.375 l 1025
375 500.375 m 1
 500 500.375 l 1
 500 562.875 l 1
 375 562.875 l 1
 375 500.375 l 1025
187.5 437.875 m 1
 312.5 437.875 l 1
 312.5 500.375 l 1
 187.5 500.375 l 1
 187.5 437.875 l 1025
375 437.875 m 1
 500 437.875 l 1
 500 500.375 l 1
 375 500.375 l 1
 375 437.875 l 1025
0 375.375 m 1
 562.5 375.375 l 1
 562.5 437.875 l 1
 0 437.875 l 1
 0 375.375 l 1025
125 312.875 m 1
 250 312.875 l 1
 250 375.375 l 1
 125 375.375 l 1
 125 312.875 l 1025
312.5 312.875 m 1
 437.5 312.875 l 1
 437.5 375.375 l 1
 312.5 375.375 l 1
 312.5 312.875 l 1025
125 250.375 m 1
 250 250.375 l 1
 250 312.875 l 1
 125 312.875 l 1
 125 250.375 l 1025
312.5 250.375 m 1
 437.5 250.375 l 1
 437.5 312.875 l 1
 312.5 312.875 l 1
 312.5 250.375 l 1025
0 187.875 m 1
 562.5 187.875 l 1
 562.5 250.375 l 1
 0 250.375 l 1
 0 187.875 l 1025
62.5 125.375 m 1
 187.5 125.375 l 1
 187.5 187.875 l 1
 62.5 187.875 l 1
 62.5 125.375 l 1025
250 125.375 m 1
 375 125.375 l 1
 375 187.875 l 1
 250 187.875 l 1
 250 125.375 l 1025
62.5 62.875 m 1
 187.5 62.875 l 1
 187.5 125.375 l 1
 62.5 125.375 l 1
 62.5 62.875 l 1025
250 62.875 m 1
 375 62.875 l 1
 375 125.375 l 1
 250 125.375 l 1
 250 62.875 l 1025
62.5 0.375 m 1
 187.5 0.375 l 1
 187.5 62.875 l 1
 62.5 62.875 l 1
 62.5 0.375 l 1025
250 0.375 m 1
 250 62.875 l 1
 375 62.875 l 1
 375 0.375 l 1
 250 0.375 l 1
EndSplineSet
EndChar

StartChar: dollar
Encoding: 36 36 5
Width: 562
VWidth: 875
Flags: HW
LayerCount: 2
Back
Fore
SplineSet
312.5 625.375 m 1
 375 625.375 l 1
 375 687.875 l 1
 312.5 687.875 l 1
 312.5 625.375 l 1025
125 562.875 m 1
 437.5 562.875 l 1
 437.5 625.375 l 1
 125 625.375 l 1
 125 562.875 l 1025
62.5 500.375 m 1
 187.5 500.375 l 1
 187.5 562.875 l 1
 62.5 562.875 l 1
 62.5 500.375 l 1025
312.5 500.375 m 1
 375 500.375 l 1
 375 562.875 l 1
 312.5 562.875 l 1
 312.5 500.375 l 1025
437.5 500.375 m 1
 500 500.375 l 1
 500 562.875 l 1
 437.5 562.875 l 1
 437.5 500.375 l 1025
62.5 437.875 m 1
 187.5 437.875 l 1
 187.5 500.375 l 1
 62.5 500.375 l 1
 62.5 437.875 l 1025
312.5 437.875 m 1
 375 437.875 l 1
 375 500.375 l 1
 312.5 500.375 l 1
 312.5 437.875 l 1025
62.5 375.375 m 1
 250 375.375 l 1
 250 437.875 l 1
 62.5 437.875 l 1
 62.5 375.375 l 1025
312.5 375.375 m 1
 375 375.375 l 1
 375 437.875 l 1
 312.5 437.875 l 1
 312.5 375.375 l 1025
125 312.875 m 1
 375 312.875 l 1
 375 375.375 l 1
 125 375.375 l 1
 125 312.875 l 1025
187.5 250.375 m 1
 437.5 250.375 l 1
 437.5 312.875 l 1
 187.5 312.875 l 1
 187.5 250.375 l 1025
187.5 187.875 m 1
 250 187.875 l 1
 250 250.375 l 1
 187.5 250.375 l 1
 187.5 187.875 l 1025
312.5 187.875 m 1
 500 187.875 l 1
 500 250.375 l 1
 312.5 250.375 l 1
 312.5 187.875 l 1025
187.5 125.375 m 1
 250 125.375 l 1
 250 187.875 l 1
 187.5 187.875 l 1
 187.5 125.375 l 1025
375 125.375 m 1
 500 125.375 l 1
 500 187.875 l 1
 375 187.875 l 1
 375 125.375 l 1025
62.5 62.875 m 1
 125 62.875 l 1
 125 125.375 l 1
 62.5 125.375 l 1
 62.5 62.875 l 1025
187.5 62.875 m 1
 250 62.875 l 1
 250 125.375 l 1
 187.5 125.375 l 1
 187.5 62.875 l 1025
375 62.875 m 1
 500 62.875 l 1
 500 125.375 l 1
 375 125.375 l 1
 375 62.875 l 1025
125 0.375 m 1
 437.5 0.375 l 1
 437.5 62.875 l 1
 125 62.875 l 1
 125 0.375 l 1025
187.5 -62.125 m 1
 187.5 0.375 l 1
 250 0.375 l 1
 250 -62.125 l 1
 187.5 -62.125 l 1
EndSplineSet
EndChar

StartChar: percent
Encoding: 37 37 6
Width: 562
VWidth: 875
Flags: HW
LayerCount: 2
Back
Fore
SplineSet
125 562.875 m 1
 312.5 562.875 l 1
 312.5 625.375 l 1
 125 625.375 l 1
 125 562.875 l 1025
62.5 500.375 m 1
 187.5 500.375 l 1
 187.5 562.875 l 1
 62.5 562.875 l 1
 62.5 500.375 l 1025
250 500.375 m 1
 375 500.375 l 1
 375 562.875 l 1
 250 562.875 l 1
 250 500.375 l 1025
500 500.375 m 1
 562.5 500.375 l 1
 562.5 562.875 l 1
 500 562.875 l 1
 500 500.375 l 1025
62.5 437.875 m 1
 187.5 437.875 l 1
 187.5 500.375 l 1
 62.5 500.375 l 1
 62.5 437.875 l 1025
250 437.875 m 1
 375 437.875 l 1
 375 500.375 l 1
 250 500.375 l 1
 250 437.875 l 1025
437.5 437.875 m 1
 500 437.875 l 1
 500 500.375 l 1
 437.5 500.375 l 1
 437.5 437.875 l 1025
125 375.375 m 1
 312.5 375.375 l 1
 312.5 437.875 l 1
 125 437.875 l 1
 125 375.375 l 1025
375 375.375 m 1
 437.5 375.375 l 1
 437.5 437.875 l 1
 375 437.875 l 1
 375 375.375 l 1025
312.5 312.875 m 1
 375 312.875 l 1
 375 375.375 l 1
 312.5 375.375 l 1
 312.5 312.875 l 1025
250 250.375 m 1
 312.5 250.375 l 1
 312.5 312.875 l 1
 250 312.875 l 1
 250 250.375 l 1025
187.5 187.875 m 1
 250 187.875 l 1
 250 250.375 l 1
 187.5 250.375 l 1
 187.5 187.875 l 1025
312.5 187.875 m 1
 500 187.875 l 1
 500 250.375 l 1
 312.5 250.375 l 1
 312.5 187.875 l 1025
125 125.375 m 1
 187.5 125.375 l 1
 187.5 187.875 l 1
 125 187.875 l 1
 125 125.375 l 1025
250 125.375 m 1
 375 125.375 l 1
 375 187.875 l 1
 250 187.875 l 1
 250 125.375 l 1025
437.5 125.375 m 1
 562.5 125.375 l 1
 562.5 187.875 l 1
 437.5 187.875 l 1
 437.5 125.375 l 1025
62.5 62.875 m 1
 125 62.875 l 1
 125 125.375 l 1
 62.5 125.375 l 1
 62.5 62.875 l 1025
250 62.875 m 1
 375 62.875 l 1
 375 125.375 l 1
 250 125.375 l 1
 250 62.875 l 1025
437.5 62.875 m 1
 562.5 62.875 l 1
 562.5 125.375 l 1
 437.5 125.375 l 1
 437.5 62.875 l 1025
312.5 0.375 m 1
 312.5 62.875 l 1
 500 62.875 l 1
 500 0.375 l 1
 312.5 0.375 l 1
EndSplineSet
EndChar

StartChar: ampersand
Encoding: 38 38 7
Width: 562
VWidth: 875
Flags: HW
LayerCount: 2
Back
Fore
SplineSet
187.5 562.875 m 1
 375 562.875 l 1
 375 625.375 l 1
 187.5 625.375 l 1
 187.5 562.875 l 1025
125 500.375 m 1
 250 500.375 l 1
 250 562.875 l 1
 125 562.875 l 1
 125 500.375 l 1025
312.5 500.375 m 1
 437.5 500.375 l 1
 437.5 562.875 l 1
 312.5 562.875 l 1
 312.5 500.375 l 1025
125 437.875 m 1
 250 437.875 l 1
 250 500.375 l 1
 125 500.375 l 1
 125 437.875 l 1025
312.5 437.875 m 1
 437.5 437.875 l 1
 437.5 500.375 l 1
 312.5 500.375 l 1
 312.5 437.875 l 1025
125 375.375 m 1
 250 375.375 l 1
 250 437.875 l 1
 125 437.875 l 1
 125 375.375 l 1025
312.5 375.375 m 1
 375 375.375 l 1
 375 437.875 l 1
 312.5 437.875 l 1
 312.5 375.375 l 1025
187.5 312.875 m 1
 312.5 312.875 l 1
 312.5 375.375 l 1
 187.5 375.375 l 1
 187.5 312.875 l 1025
437.5 312.875 m 1
 562.5 312.875 l 1
 562.5 375.375 l 1
 437.5 375.375 l 1
 437.5 312.875 l 1025
125 250.375 m 1
 187.5 250.375 l 1
 187.5 312.875 l 1
 125 312.875 l 1
 125 250.375 l 1025
250 250.375 m 1
 375 250.375 l 1
 375 312.875 l 1
 250 312.875 l 1
 250 250.375 l 1025
437.5 250.375 m 1
 562.5 250.375 l 1
 562.5 312.875 l 1
 437.5 312.875 l 1
 437.5 250.375 l 1025
62.5 187.875 m 1
 187.5 187.875 l 1
 187.5 250.375 l 1
 62.5 250.375 l 1
 62.5 187.875 l 1025
312.5 187.875 m 1
 375 187.875 l 1
 375 250.375 l 1
 312.5 250.375 l 1
 312.5 187.875 l 1025
437.5 187.875 m 1
 500 187.875 l 1
 500 250.375 l 1
 437.5 250.375 l 1
 437.5 187.875 l 1025
62.5 125.375 m 1
 187.5 125.375 l 1
 187.5 187.875 l 1
 62.5 187.875 l 1
 62.5 125.375 l 1025
312.5 125.375 m 1
 437.5 125.375 l 1
 437.5 187.875 l 1
 312.5 187.875 l 1
 312.5 125.375 l 1025
62.5 62.875 m 1
 250 62.875 l 1
 250 125.375 l 1
 62.5 125.375 l 1
 62.5 62.875 l 1025
312.5 62.875 m 1
 500 62.875 l 1
 500 125.375 l 1
 312.5 125.375 l 1
 312.5 62.875 l 1025
125 0.375 m 1
 312.5 0.375 l 1
 312.5 62.875 l 1
 125 62.875 l 1
 125 0.375 l 1025
437.5 0.375 m 1
 437.5 62.875 l 1
 562.5 62.875 l 1
 562.5 0.375 l 1
 437.5 0.375 l 1
EndSplineSet
EndChar

StartChar: quotesingle
Encoding: 39 39 8
Width: 562
VWidth: 875
Flags: HW
LayerCount: 2
Back
Fore
SplineSet
250 625.375 m 1
 312.5 625.375 l 1
 312.5 687.875 l 1
 250 687.875 l 1
 250 625.375 l 1025
250 562.875 m 1
 312.5 562.875 l 1
 312.5 625.375 l 1
 250 625.375 l 1
 250 562.875 l 1025
250 500.375 m 1
 312.5 500.375 l 1
 312.5 562.875 l 1
 250 562.875 l 1
 250 500.375 l 1025
250 437.875 m 1
 250 500.375 l 1
 312.5 500.375 l 1
 312.5 437.875 l 1
 250 437.875 l 1
EndSplineSet
EndChar

StartChar: parenleft
Encoding: 40 40 9
Width: 562
VWidth: 875
Flags: HW
LayerCount: 2
Back
Fore
SplineSet
312.5 625.375 m 1
 437.5 625.375 l 1
 437.5 687.875 l 1
 312.5 687.875 l 1
 312.5 625.375 l 1025
250 562.875 m 1
 375 562.875 l 1
 375 625.375 l 1
 250 625.375 l 1
 250 562.875 l 1025
187.5 500.375 m 1
 312.5 500.375 l 1
 312.5 562.875 l 1
 187.5 562.875 l 1
 187.5 500.375 l 1025
187.5 437.875 m 1
 312.5 437.875 l 1
 312.5 500.375 l 1
 187.5 500.375 l 1
 187.5 437.875 l 1025
125 375.375 m 1
 250 375.375 l 1
 250 437.875 l 1
 125 437.875 l 1
 125 375.375 l 1025
125 312.875 m 1
 250 312.875 l 1
 250 375.375 l 1
 125 375.375 l 1
 125 312.875 l 1025
125 250.375 m 1
 250 250.375 l 1
 250 312.875 l 1
 125 312.875 l 1
 125 250.375 l 1025
125 187.875 m 1
 250 187.875 l 1
 250 250.375 l 1
 125 250.375 l 1
 125 187.875 l 1025
187.5 125.375 m 1
 312.5 125.375 l 1
 312.5 187.875 l 1
 187.5 187.875 l 1
 187.5 125.375 l 1025
187.5 62.875 m 1
 312.5 62.875 l 1
 312.5 125.375 l 1
 187.5 125.375 l 1
 187.5 62.875 l 1025
250 0.375 m 1
 375 0.375 l 1
 375 62.875 l 1
 250 62.875 l 1
 250 0.375 l 1025
312.5 -62.125 m 1
 312.5 0.375 l 1
 437.5 0.375 l 1
 437.5 -62.125 l 1
 312.5 -62.125 l 1
EndSplineSet
EndChar

StartChar: parenright
Encoding: 41 41 10
Width: 562
VWidth: 875
Flags: HW
LayerCount: 2
Back
Fore
SplineSet
125 625.375 m 1
 250 625.375 l 1
 250 687.875 l 1
 125 687.875 l 1
 125 625.375 l 1025
187.5 562.875 m 1
 312.5 562.875 l 1
 312.5 625.375 l 1
 187.5 625.375 l 1
 187.5 562.875 l 1025
250 500.375 m 1
 375 500.375 l 1
 375 562.875 l 1
 250 562.875 l 1
 250 500.375 l 1025
250 437.875 m 1
 375 437.875 l 1
 375 500.375 l 1
 250 500.375 l 1
 250 437.875 l 1025
312.5 375.375 m 1
 437.5 375.375 l 1
 437.5 437.875 l 1
 312.5 437.875 l 1
 312.5 375.375 l 1025
312.5 312.875 m 1
 437.5 312.875 l 1
 437.5 375.375 l 1
 312.5 375.375 l 1
 312.5 312.875 l 1025
312.5 250.375 m 1
 437.5 250.375 l 1
 437.5 312.875 l 1
 312.5 312.875 l 1
 312.5 250.375 l 1025
312.5 187.875 m 1
 437.5 187.875 l 1
 437.5 250.375 l 1
 312.5 250.375 l 1
 312.5 187.875 l 1025
250 125.375 m 1
 375 125.375 l 1
 375 187.875 l 1
 250 187.875 l 1
 250 125.375 l 1025
250 62.875 m 1
 375 62.875 l 1
 375 125.375 l 1
 250 125.375 l 1
 250 62.875 l 1025
187.5 0.375 m 1
 312.5 0.375 l 1
 312.5 62.875 l 1
 187.5 62.875 l 1
 187.5 0.375 l 1025
125 -62.125 m 1
 125 0.375 l 1
 250 0.375 l 1
 250 -62.125 l 1
 125 -62.125 l 1
EndSplineSet
EndChar

StartChar: asterisk
Encoding: 42 42 11
Width: 562
VWidth: 875
Flags: HW
LayerCount: 2
Back
Fore
SplineSet
250 562.875 m 1
 312.5 562.875 l 1
 312.5 625.375 l 1
 250 625.375 l 1
 250 562.875 l 1025
125 500.375 m 1
 187.5 500.375 l 1
 187.5 562.875 l 1
 125 562.875 l 1
 125 500.375 l 1025
250 500.375 m 1
 312.5 500.375 l 1
 312.5 562.875 l 1
 250 562.875 l 1
 250 500.375 l 1025
375 500.375 m 1
 437.5 500.375 l 1
 437.5 562.875 l 1
 375 562.875 l 1
 375 500.375 l 1025
187.5 437.875 m 1
 375 437.875 l 1
 375 500.375 l 1
 187.5 500.375 l 1
 187.5 437.875 l 1025
125 375.375 m 1
 187.5 375.375 l 1
 187.5 437.875 l 1
 125 437.875 l 1
 125 375.375 l 1025
250 375.375 m 1
 312.5 375.375 l 1
 312.5 437.875 l 1
 250 437.875 l 1
 250 375.375 l 1025
375 375.375 m 1
 437.5 375.375 l 1
 437.5 437.875 l 1
 375 437.875 l 1
 375 375.375 l 1025
250 312.875 m 1
 250 375.375 l 1
 312.5 375.375 l 1
 312.5 312.875 l 1
 250 312.875 l 1
EndSplineSet
EndChar

StartChar: plus
Encoding: 43 43 12
Width: 562
VWidth: 875
Flags: HW
LayerCount: 2
Back
Fore
SplineSet
250 437.875 m 1
 312.5 437.875 l 1
 312.5 500.375 l 1
 250 500.375 l 1
 250 437.875 l 1025
250 375.375 m 1
 312.5 375.375 l 1
 312.5 437.875 l 1
 250 437.875 l 1
 250 375.375 l 1025
250 312.875 m 1
 312.5 312.875 l 1
 312.5 375.375 l 1
 250 375.375 l 1
 250 312.875 l 1025
62.5 250.375 m 1
 500 250.375 l 1
 500 312.875 l 1
 62.5 312.875 l 1
 62.5 250.375 l 1025
250 187.875 m 1
 312.5 187.875 l 1
 312.5 250.375 l 1
 250 250.375 l 1
 250 187.875 l 1025
250 125.375 m 1
 312.5 125.375 l 1
 312.5 187.875 l 1
 250 187.875 l 1
 250 125.375 l 1025
250 62.875 m 1
 250 125.375 l 1
 312.5 125.375 l 1
 312.5 62.875 l 1
 250 62.875 l 1
EndSplineSet
EndChar

StartChar: comma
Encoding: 44 44 13
Width: 562
VWidth: 875
Flags: HW
LayerCount: 2
Back
Fore
SplineSet
187.5 62.875 m 1
 375 62.875 l 1
 375 125.375 l 1
 187.5 125.375 l 1
 187.5 62.875 l 1025
187.5 0.375 m 1
 375 0.375 l 1
 375 62.875 l 1
 187.5 62.875 l 1
 187.5 0.375 l 1025
312.5 -62.125 m 1
 375 -62.125 l 1
 375 0.375 l 1
 312.5 0.375 l 1
 312.5 -62.125 l 1025
187.5 -124.625 m 1
 187.5 -62.125 l 1
 312.5 -62.125 l 1
 312.5 -124.625 l 1
 187.5 -124.625 l 1
EndSplineSet
EndChar

StartChar: period
Encoding: 46 46 15
Width: 562
VWidth: 875
Flags: HW
LayerCount: 2
Back
Fore
SplineSet
187.5 62.875 m 1
 375 62.875 l 1
 375 125.375 l 1
 187.5 125.375 l 1
 187.5 62.875 l 1025
187.5 0.375 m 1
 187.5 62.875 l 1
 375 62.875 l 1
 375 0.375 l 1
 187.5 0.375 l 1
EndSplineSet
EndChar

StartChar: slash
Encoding: 47 47 16
Width: 562
VWidth: 875
Flags: HW
LayerCount: 2
Back
Fore
SplineSet
375 625.375 m 1
 500 625.375 l 1
 500 687.875 l 1
 375 687.875 l 1
 375 625.375 l 1025
375 562.875 m 1
 500 562.875 l 1
 500 625.375 l 1
 375 625.375 l 1
 375 562.875 l 1025
312.5 500.375 m 1
 437.5 500.375 l 1
 437.5 562.875 l 1
 312.5 562.875 l 1
 312.5 500.375 l 1025
312.5 437.875 m 1
 437.5 437.875 l 1
 437.5 500.375 l 1
 312.5 500.375 l 1
 312.5 437.875 l 1025
250 375.375 m 1
 375 375.375 l 1
 375 437.875 l 1
 250 437.875 l 1
 250 375.375 l 1025
250 312.875 m 1
 375 312.875 l 1
 375 375.375 l 1
 250 375.375 l 1
 250 312.875 l 1025
187.5 250.375 m 1
 312.5 250.375 l 1
 312.5 312.875 l 1
 187.5 312.875 l 1
 187.5 250.375 l 1025
187.5 187.875 m 1
 312.5 187.875 l 1
 312.5 250.375 l 1
 187.5 250.375 l 1
 187.5 187.875 l 1025
125 125.375 m 1
 250 125.375 l 1
 250 187.875 l 1
 125 187.875 l 1
 125 125.375 l 1025
125 62.875 m 1
 250 62.875 l 1
 250 125.375 l 1
 125 125.375 l 1
 125 62.875 l 1025
62.5 0.375 m 1
 187.5 0.375 l 1
 187.5 62.875 l 1
 62.5 62.875 l 1
 62.5 0.375 l 1025
62.5 -62.125 m 1
 62.5 0.375 l 1
 187.5 0.375 l 1
 187.5 -62.125 l 1
 62.5 -62.125 l 1
EndSplineSet
EndChar

StartChar: zero
Encoding: 48 48 17
Width: 562
VWidth: 875
Flags: HW
LayerCount: 2
Back
Fore
SplineSet
187.5 562.875 m 1
 375 562.875 l 1
 375 625.375 l 1
 187.5 625.375 l 1
 187.5 562.875 l 1025
125 500.375 m 1
 250 500.375 l 1
 250 562.875 l 1
 125 562.875 l 1
 125 500.375 l 1025
312.5 500.375 m 1
 437.5 500.375 l 1
 437.5 562.875 l 1
 312.5 562.875 l 1
 312.5 500.375 l 1025
62.5 437.875 m 1
 187.5 437.875 l 1
 187.5 500.375 l 1
 62.5 500.375 l 1
 62.5 437.875 l 1025
375 437.875 m 1
 500 437.875 l 1
 500 500.375 l 1
 375 500.375 l 1
 375 437.875 l 1025
62.5 375.375 m 1
 187.5 375.375 l 1
 187.5 437.875 l 1
 62.5 437.875 l 1
 62.5 375.375 l 1025
375 375.375 m 1
 500 375.375 l 1
 500 437.875 l 1
 375 437.875 l 1
 375 375.375 l 1025
62.5 312.875 m 1
 187.5 312.875 l 1
 187.5 375.375 l 1
 62.5 375.375 l 1
 62.5 312.875 l 1025
375 312.875 m 1
 500 312.875 l 1
 500 375.375 l 1
 375 375.375 l 1
 375 312.875 l 1025
62.5 250.375 m 1
 187.5 250.375 l 1
 187.5 312.875 l 1
 62.5 312.875 l 1
 62.5 250.375 l 1025
375 250.375 m 1
 500 250.375 l 1
 500 312.875 l 1
 375 312.875 l 1
 375 250.375 l 1025
62.5 187.875 m 1
 187.5 187.875 l 1
 187.5 250.375 l 1
 62.5 250.375 l 1
 62.5 187.875 l 1025
375 187.875 m 1
 500 187.875 l 1
 500 250.375 l 1
 375 250.375 l 1
 375 187.875 l 1025
62.5 125.375 m 1
 187.5 125.375 l 1
 187.5 187.875 l 1
 62.5 187.875 l 1
 62.5 125.375 l 1025
375 125.375 m 1
 500 125.375 l 1
 500 187.875 l 1
 375 187.875 l 1
 375 125.375 l 1025
125 62.875 m 1
 250 62.875 l 1
 250 125.375 l 1
 125 125.375 l 1
 125 62.875 l 1025
312.5 62.875 m 1
 437.5 62.875 l 1
 437.5 125.375 l 1
 312.5 125.375 l 1
 312.5 62.875 l 1025
187.5 0.375 m 1
 187.5 62.875 l 1
 375 62.875 l 1
 375 0.375 l 1
 187.5 0.375 l 1
EndSplineSet
EndChar

StartChar: one
Encoding: 49 49 18
Width: 562
VWidth: 875
Flags: HW
LayerCount: 2
Back
Fore
SplineSet
250 562.875 m 1
 375 562.875 l 1
 375 625.375 l 1
 250 625.375 l 1
 250 562.875 l 1025
187.5 500.375 m 1
 375 500.375 l 1
 375 562.875 l 1
 187.5 562.875 l 1
 187.5 500.375 l 1025
125 437.875 m 1
 187.5 437.875 l 1
 187.5 500.375 l 1
 125 500.375 l 1
 125 437.875 l 1025
250 437.875 m 1
 375 437.875 l 1
 375 500.375 l 1
 250 500.375 l 1
 250 437.875 l 1025
250 375.375 m 1
 375 375.375 l 1
 375 437.875 l 1
 250 437.875 l 1
 250 375.375 l 1025
250 312.875 m 1
 375 312.875 l 1
 375 375.375 l 1
 250 375.375 l 1
 250 312.875 l 1025
250 250.375 m 1
 375 250.375 l 1
 375 312.875 l 1
 250 312.875 l 1
 250 250.375 l 1025
250 187.875 m 1
 375 187.875 l 1
 375 250.375 l 1
 250 250.375 l 1
 250 187.875 l 1025
250 125.375 m 1
 375 125.375 l 1
 375 187.875 l 1
 250 187.875 l 1
 250 125.375 l 1025
250 62.875 m 1
 375 62.875 l 1
 375 125.375 l 1
 250 125.375 l 1
 250 62.875 l 1025
250 0.375 m 1
 250 62.875 l 1
 375 62.875 l 1
 375 0.375 l 1
 250 0.375 l 1
EndSplineSet
EndChar

StartChar: two
Encoding: 50 50 19
Width: 562
VWidth: 875
Flags: HW
LayerCount: 2
Back
Fore
SplineSet
125 562.875 m 1
 437.5 562.875 l 1
 437.5 625.375 l 1
 125 625.375 l 1
 125 562.875 l 1025
62.5 500.375 m 1
 187.5 500.375 l 1
 187.5 562.875 l 1
 62.5 562.875 l 1
 62.5 500.375 l 1025
312.5 500.375 m 1
 500 500.375 l 1
 500 562.875 l 1
 312.5 562.875 l 1
 312.5 500.375 l 1025
375 437.875 m 1
 500 437.875 l 1
 500 500.375 l 1
 375 500.375 l 1
 375 437.875 l 1025
375 375.375 m 1
 500 375.375 l 1
 500 437.875 l 1
 375 437.875 l 1
 375 375.375 l 1025
312.5 312.875 m 1
 437.5 312.875 l 1
 437.5 375.375 l 1
 312.5 375.375 l 1
 312.5 312.875 l 1025
250 250.375 m 1
 375 250.375 l 1
 375 312.875 l 1
 250 312.875 l 1
 250 250.375 l 1025
187.5 187.875 m 1
 312.5 187.875 l 1
 312.5 250.375 l 1
 187.5 250.375 l 1
 187.5 187.875 l 1025
125 125.375 m 1
 250 125.375 l 1
 250 187.875 l 1
 125 187.875 l 1
 125 125.375 l 1025
62.5 62.875 m 1
 500 62.875 l 1
 500 125.375 l 1
 62.5 125.375 l 1
 62.5 62.875 l 1025
62.5 0.375 m 1
 62.5 62.875 l 1
 500 62.875 l 1
 500 0.375 l 1
 62.5 0.375 l 1
EndSplineSet
EndChar

StartChar: three
Encoding: 51 51 20
Width: 562
VWidth: 875
Flags: HW
LayerCount: 2
Back
Fore
SplineSet
125 562.875 m 1
 437.5 562.875 l 1
 437.5 625.375 l 1
 125 625.375 l 1
 125 562.875 l 1025
62.5 500.375 m 1
 187.5 500.375 l 1
 187.5 562.875 l 1
 62.5 562.875 l 1
 62.5 500.375 l 1025
312.5 500.375 m 1
 500 500.375 l 1
 500 562.875 l 1
 312.5 562.875 l 1
 312.5 500.375 l 1025
375 437.875 m 1
 500 437.875 l 1
 500 500.375 l 1
 375 500.375 l 1
 375 437.875 l 1025
312.5 375.375 m 1
 437.5 375.375 l 1
 437.5 437.875 l 1
 312.5 437.875 l 1
 312.5 375.375 l 1025
187.5 312.875 m 1
 375 312.875 l 1
 375 375.375 l 1
 187.5 375.375 l 1
 187.5 312.875 l 1025
312.5 250.375 m 1
 437.5 250.375 l 1
 437.5 312.875 l 1
 312.5 312.875 l 1
 312.5 250.375 l 1025
375 187.875 m 1
 500 187.875 l 1
 500 250.375 l 1
 375 250.375 l 1
 375 187.875 l 1025
375 125.375 m 1
 500 125.375 l 1
 500 187.875 l 1
 375 187.875 l 1
 375 125.375 l 1025
62.5 62.875 m 1
 187.5 62.875 l 1
 187.5 125.375 l 1
 62.5 125.375 l 1
 62.5 62.875 l 1025
312.5 62.875 m 1
 500 62.875 l 1
 500 125.375 l 1
 312.5 125.375 l 1
 312.5 62.875 l 1025
125 0.375 m 1
 125 62.875 l 1
 437.5 62.875 l 1
 437.5 0.375 l 1
 125 0.375 l 1
EndSplineSet
EndChar

StartChar: four
Encoding: 52 52 21
Width: 562
VWidth: 875
Flags: HW
LayerCount: 2
Back
Fore
SplineSet
312.5 562.875 m 1
 437.5 562.875 l 1
 437.5 625.375 l 1
 312.5 625.375 l 1
 312.5 562.875 l 1025
250 500.375 m 1
 437.5 500.375 l 1
 437.5 562.875 l 1
 250 562.875 l 1
 250 500.375 l 1025
187.5 437.875 m 1
 250 437.875 l 1
 250 500.375 l 1
 187.5 500.375 l 1
 187.5 437.875 l 1025
312.5 437.875 m 1
 437.5 437.875 l 1
 437.5 500.375 l 1
 312.5 500.375 l 1
 312.5 437.875 l 1025
125 375.375 m 1
 187.5 375.375 l 1
 187.5 437.875 l 1
 125 437.875 l 1
 125 375.375 l 1025
312.5 375.375 m 1
 437.5 375.375 l 1
 437.5 437.875 l 1
 312.5 437.875 l 1
 312.5 375.375 l 1025
62.5 312.875 m 1
 125 312.875 l 1
 125 375.375 l 1
 62.5 375.375 l 1
 62.5 312.875 l 1025
312.5 312.875 m 1
 437.5 312.875 l 1
 437.5 375.375 l 1
 312.5 375.375 l 1
 312.5 312.875 l 1025
62.5 250.375 m 1
 500 250.375 l 1
 500 312.875 l 1
 62.5 312.875 l 1
 62.5 250.375 l 1025
62.5 187.875 m 1
 500 187.875 l 1
 500 250.375 l 1
 62.5 250.375 l 1
 62.5 187.875 l 1025
312.5 125.375 m 1
 437.5 125.375 l 1
 437.5 187.875 l 1
 312.5 187.875 l 1
 312.5 125.375 l 1025
312.5 62.875 m 1
 437.5 62.875 l 1
 437.5 125.375 l 1
 312.5 125.375 l 1
 312.5 62.875 l 1025
312.5 0.375 m 1
 312.5 62.875 l 1
 437.5 62.875 l 1
 437.5 0.375 l 1
 312.5 0.375 l 1
EndSplineSet
EndChar

StartChar: five
Encoding: 53 53 22
Width: 562
VWidth: 875
Flags: HW
LayerCount: 2
Back
Fore
SplineSet
62.5 562.875 m 1
 500 562.875 l 1
 500 625.375 l 1
 62.5 625.375 l 1
 62.5 562.875 l 1025
62.5 500.375 m 1
 500 500.375 l 1
 500 562.875 l 1
 62.5 562.875 l 1
 62.5 500.375 l 1025
62.5 437.875 m 1
 125 437.875 l 1
 125 500.375 l 1
 62.5 500.375 l 1
 62.5 437.875 l 1025
62.5 375.375 m 1
 125 375.375 l 1
 125 437.875 l 1
 62.5 437.875 l 1
 62.5 375.375 l 1025
62.5 312.875 m 1
 437.5 312.875 l 1
 437.5 375.375 l 1
 62.5 375.375 l 1
 62.5 312.875 l 1025
312.5 250.375 m 1
 500 250.375 l 1
 500 312.875 l 1
 312.5 312.875 l 1
 312.5 250.375 l 1025
375 187.875 m 1
 500 187.875 l 1
 500 250.375 l 1
 375 250.375 l 1
 375 187.875 l 1025
375 125.375 m 1
 500 125.375 l 1
 500 187.875 l 1
 375 187.875 l 1
 375 125.375 l 1025
62.5 62.875 m 1
 187.5 62.875 l 1
 187.5 125.375 l 1
 62.5 125.375 l 1
 62.5 62.875 l 1025
312.5 62.875 m 1
 437.5 62.875 l 1
 437.5 125.375 l 1
 312.5 125.375 l 1
 312.5 62.875 l 1025
125 0.375 m 1
 125 62.875 l 1
 375 62.875 l 1
 375 0.375 l 1
 125 0.375 l 1
EndSplineSet
EndChar

StartChar: six
Encoding: 54 54 23
Width: 562
VWidth: 875
Flags: HW
LayerCount: 2
Back
Fore
SplineSet
187.5 562.875 m 1
 437.5 562.875 l 1
 437.5 625.375 l 1
 187.5 625.375 l 1
 187.5 562.875 l 1025
125 500.375 m 1
 250 500.375 l 1
 250 562.875 l 1
 125 562.875 l 1
 125 500.375 l 1025
375 500.375 m 1
 500 500.375 l 1
 500 562.875 l 1
 375 562.875 l 1
 375 500.375 l 1025
62.5 437.875 m 1
 187.5 437.875 l 1
 187.5 500.375 l 1
 62.5 500.375 l 1
 62.5 437.875 l 1025
62.5 375.375 m 1
 187.5 375.375 l 1
 187.5 437.875 l 1
 62.5 437.875 l 1
 62.5 375.375 l 1025
250 375.375 m 1
 375 375.375 l 1
 375 437.875 l 1
 250 437.875 l 1
 250 375.375 l 1025
62.5 312.875 m 1
 250 312.875 l 1
 250 375.375 l 1
 62.5 375.375 l 1
 62.5 312.875 l 1025
312.5 312.875 m 1
 437.5 312.875 l 1
 437.5 375.375 l 1
 312.5 375.375 l 1
 312.5 312.875 l 1025
62.5 250.375 m 1
 187.5 250.375 l 1
 187.5 312.875 l 1
 62.5 312.875 l 1
 62.5 250.375 l 1025
375 250.375 m 1
 500 250.375 l 1
 500 312.875 l 1
 375 312.875 l 1
 375 250.375 l 1025
62.5 187.875 m 1
 187.5 187.875 l 1
 187.5 250.375 l 1
 62.5 250.375 l 1
 62.5 187.875 l 1025
375 187.875 m 1
 500 187.875 l 1
 500 250.375 l 1
 375 250.375 l 1
 375 187.875 l 1025
62.5 125.375 m 1
 187.5 125.375 l 1
 187.5 187.875 l 1
 62.5 187.875 l 1
 62.5 125.375 l 1025
375 125.375 m 1
 500 125.375 l 1
 500 187.875 l 1
 375 187.875 l 1
 375 125.375 l 1025
125 62.875 m 1
 250 62.875 l 1
 250 125.375 l 1
 125 125.375 l 1
 125 62.875 l 1025
312.5 62.875 m 1
 437.5 62.875 l 1
 437.5 125.375 l 1
 312.5 125.375 l 1
 312.5 62.875 l 1025
187.5 0.375 m 1
 187.5 62.875 l 1
 375 62.875 l 1
 375 0.375 l 1
 187.5 0.375 l 1
EndSplineSet
EndChar

StartChar: seven
Encoding: 55 55 24
Width: 562
VWidth: 875
Flags: HW
LayerCount: 2
Back
Fore
SplineSet
62.5 562.875 m 1
 500 562.875 l 1
 500 625.375 l 1
 62.5 625.375 l 1
 62.5 562.875 l 1025
62.5 500.375 m 1
 500 500.375 l 1
 500 562.875 l 1
 62.5 562.875 l 1
 62.5 500.375 l 1025
375 437.875 m 1
 500 437.875 l 1
 500 500.375 l 1
 375 500.375 l 1
 375 437.875 l 1025
312.5 375.375 m 1
 437.5 375.375 l 1
 437.5 437.875 l 1
 312.5 437.875 l 1
 312.5 375.375 l 1025
250 312.875 m 1
 375 312.875 l 1
 375 375.375 l 1
 250 375.375 l 1
 250 312.875 l 1025
187.5 250.375 m 1
 312.5 250.375 l 1
 312.5 312.875 l 1
 187.5 312.875 l 1
 187.5 250.375 l 1025
187.5 187.875 m 1
 312.5 187.875 l 1
 312.5 250.375 l 1
 187.5 250.375 l 1
 187.5 187.875 l 1025
125 125.375 m 1
 250 125.375 l 1
 250 187.875 l 1
 125 187.875 l 1
 125 125.375 l 1025
125 62.875 m 1
 250 62.875 l 1
 250 125.375 l 1
 125 125.375 l 1
 125 62.875 l 1025
125 0.375 m 1
 125 62.875 l 1
 250 62.875 l 1
 250 0.375 l 1
 125 0.375 l 1
EndSplineSet
EndChar

StartChar: eight
Encoding: 56 56 25
Width: 562
VWidth: 875
Flags: HW
LayerCount: 2
Back
Fore
SplineSet
125 562.875 m 1
 437.5 562.875 l 1
 437.5 625.375 l 1
 125 625.375 l 1
 125 562.875 l 1025
62.5 500.375 m 1
 187.5 500.375 l 1
 187.5 562.875 l 1
 62.5 562.875 l 1
 62.5 500.375 l 1025
375 500.375 m 1
 500 500.375 l 1
 500 562.875 l 1
 375 562.875 l 1
 375 500.375 l 1025
62.5 437.875 m 1
 187.5 437.875 l 1
 187.5 500.375 l 1
 62.5 500.375 l 1
 62.5 437.875 l 1025
375 437.875 m 1
 500 437.875 l 1
 500 500.375 l 1
 375 500.375 l 1
 375 437.875 l 1025
62.5 375.375 m 1
 250 375.375 l 1
 250 437.875 l 1
 62.5 437.875 l 1
 62.5 375.375 l 1025
375 375.375 m 1
 437.5 375.375 l 1
 437.5 437.875 l 1
 375 437.875 l 1
 375 375.375 l 1025
125 312.875 m 1
 375 312.875 l 1
 375 375.375 l 1
 125 375.375 l 1
 125 312.875 l 1025
125 250.375 m 1
 437.5 250.375 l 1
 437.5 312.875 l 1
 125 312.875 l 1
 125 250.375 l 1025
62.5 187.875 m 1
 187.5 187.875 l 1
 187.5 250.375 l 1
 62.5 250.375 l 1
 62.5 187.875 l 1025
312.5 187.875 m 1
 500 187.875 l 1
 500 250.375 l 1
 312.5 250.375 l 1
 312.5 187.875 l 1025
62.5 125.375 m 1
 187.5 125.375 l 1
 187.5 187.875 l 1
 62.5 187.875 l 1
 62.5 125.375 l 1025
375 125.375 m 1
 500 125.375 l 1
 500 187.875 l 1
 375 187.875 l 1
 375 125.375 l 1025
62.5 62.875 m 1
 187.5 62.875 l 1
 187.5 125.375 l 1
 62.5 125.375 l 1
 62.5 62.875 l 1025
375 62.875 m 1
 500 62.875 l 1
 500 125.375 l 1
 375 125.375 l 1
 375 62.875 l 1025
125 0.375 m 1
 125 62.875 l 1
 437.5 62.875 l 1
 437.5 0.375 l 1
 125 0.375 l 1
EndSplineSet
EndChar

StartChar: nine
Encoding: 57 57 26
Width: 562
VWidth: 875
Flags: HW
LayerCount: 2
Back
Fore
SplineSet
187.5 562.875 m 1
 375 562.875 l 1
 375 625.375 l 1
 187.5 625.375 l 1
 187.5 562.875 l 1025
125 500.375 m 1
 250 500.375 l 1
 250 562.875 l 1
 125 562.875 l 1
 125 500.375 l 1025
312.5 500.375 m 1
 437.5 500.375 l 1
 437.5 562.875 l 1
 312.5 562.875 l 1
 312.5 500.375 l 1025
62.5 437.875 m 1
 187.5 437.875 l 1
 187.5 500.375 l 1
 62.5 500.375 l 1
 62.5 437.875 l 1025
375 437.875 m 1
 500 437.875 l 1
 500 500.375 l 1
 375 500.375 l 1
 375 437.875 l 1025
62.5 375.375 m 1
 187.5 375.375 l 1
 187.5 437.875 l 1
 62.5 437.875 l 1
 62.5 375.375 l 1025
375 375.375 m 1
 500 375.375 l 1
 500 437.875 l 1
 375 437.875 l 1
 375 375.375 l 1025
62.5 312.875 m 1
 187.5 312.875 l 1
 187.5 375.375 l 1
 62.5 375.375 l 1
 62.5 312.875 l 1025
375 312.875 m 1
 500 312.875 l 1
 500 375.375 l 1
 375 375.375 l 1
 375 312.875 l 1025
125 250.375 m 1
 250 250.375 l 1
 250 312.875 l 1
 125 312.875 l 1
 125 250.375 l 1025
312.5 250.375 m 1
 500 250.375 l 1
 500 312.875 l 1
 312.5 312.875 l 1
 312.5 250.375 l 1025
187.5 187.875 m 1
 312.5 187.875 l 1
 312.5 250.375 l 1
 187.5 250.375 l 1
 187.5 187.875 l 1025
375 187.875 m 1
 500 187.875 l 1
 500 250.375 l 1
 375 250.375 l 1
 375 187.875 l 1025
375 125.375 m 1
 500 125.375 l 1
 500 187.875 l 1
 375 187.875 l 1
 375 125.375 l 1025
62.5 62.875 m 1
 187.5 62.875 l 1
 187.5 125.375 l 1
 62.5 125.375 l 1
 62.5 62.875 l 1025
312.5 62.875 m 1
 437.5 62.875 l 1
 437.5 125.375 l 1
 312.5 125.375 l 1
 312.5 62.875 l 1025
125 0.375 m 1
 125 62.875 l 1
 375 62.875 l 1
 375 0.375 l 1
 125 0.375 l 1
EndSplineSet
EndChar

StartChar: colon
Encoding: 58 58 27
Width: 562
VWidth: 875
Flags: HW
LayerCount: 2
Back
Fore
SplineSet
187.5 375.375 m 1
 312.5 375.375 l 1
 312.5 437.875 l 1
 187.5 437.875 l 1
 187.5 375.375 l 1025
187.5 312.875 m 1
 312.5 312.875 l 1
 312.5 375.375 l 1
 187.5 375.375 l 1
 187.5 312.875 l 1025
187.5 62.875 m 1
 312.5 62.875 l 1
 312.5 125.375 l 1
 187.5 125.375 l 1
 187.5 62.875 l 1025
187.5 0.375 m 1
 187.5 62.875 l 1
 312.5 62.875 l 1
 312.5 0.375 l 1
 187.5 0.375 l 1
EndSplineSet
EndChar

StartChar: semicolon
Encoding: 59 59 28
Width: 562
VWidth: 875
Flags: HW
LayerCount: 2
Back
Fore
SplineSet
187.5 375.375 m 1
 312.5 375.375 l 1
 312.5 437.875 l 1
 187.5 437.875 l 1
 187.5 375.375 l 1025
187.5 312.875 m 1
 312.5 312.875 l 1
 312.5 375.375 l 1
 187.5 375.375 l 1
 187.5 312.875 l 1025
187.5 62.875 m 1
 312.5 62.875 l 1
 312.5 125.375 l 1
 187.5 125.375 l 1
 187.5 62.875 l 1025
187.5 0.375 m 1
 312.5 0.375 l 1
 312.5 62.875 l 1
 187.5 62.875 l 1
 187.5 0.375 l 1025
250 -62.125 m 1
 312.5 -62.125 l 1
 312.5 0.375 l 1
 250 0.375 l 1
 250 -62.125 l 1025
187.5 -124.625 m 1
 187.5 -62.125 l 1
 250 -62.125 l 1
 250 -124.625 l 1
 187.5 -124.625 l 1
EndSplineSet
EndChar

StartChar: less
Encoding: 60 60 29
Width: 562
VWidth: 875
Flags: HW
LayerCount: 2
Back
Fore
SplineSet
312.5 437.875 m 1
 437.5 437.875 l 1
 437.5 500.375 l 1
 312.5 500.375 l 1
 312.5 437.875 l 1025
250 375.375 m 1
 375 375.375 l 1
 375 437.875 l 1
 250 437.875 l 1
 250 375.375 l 1025
187.5 312.875 m 1
 312.5 312.875 l 1
 312.5 375.375 l 1
 187.5 375.375 l 1
 187.5 312.875 l 1025
125 250.375 m 1
 250 250.375 l 1
 250 312.875 l 1
 125 312.875 l 1
 125 250.375 l 1025
187.5 187.875 m 1
 312.5 187.875 l 1
 312.5 250.375 l 1
 187.5 250.375 l 1
 187.5 187.875 l 1025
250 125.375 m 1
 375 125.375 l 1
 375 187.875 l 1
 250 187.875 l 1
 250 125.375 l 1025
312.5 62.875 m 1
 312.5 125.375 l 1
 437.5 125.375 l 1
 437.5 62.875 l 1
 312.5 62.875 l 1
EndSplineSet
EndChar

StartChar: equal
Encoding: 61 61 30
Width: 562
VWidth: 875
Flags: HW
LayerCount: 2
Back
Fore
SplineSet
62.5 312.875 m 1
 500 312.875 l 1
 500 375.375 l 1
 62.5 375.375 l 1
 62.5 312.875 l 1025
62.5 187.875 m 1
 62.5 250.375 l 1
 500 250.375 l 1
 500 187.875 l 1
 62.5 187.875 l 1
EndSplineSet
EndChar

StartChar: greater
Encoding: 62 62 31
Width: 562
VWidth: 875
Flags: HW
LayerCount: 2
Back
Fore
SplineSet
125 437.875 m 1
 250 437.875 l 1
 250 500.375 l 1
 125 500.375 l 1
 125 437.875 l 1025
187.5 375.375 m 1
 312.5 375.375 l 1
 312.5 437.875 l 1
 187.5 437.875 l 1
 187.5 375.375 l 1025
250 312.875 m 1
 375 312.875 l 1
 375 375.375 l 1
 250 375.375 l 1
 250 312.875 l 1025
312.5 250.375 m 1
 437.5 250.375 l 1
 437.5 312.875 l 1
 312.5 312.875 l 1
 312.5 250.375 l 1025
250 187.875 m 1
 375 187.875 l 1
 375 250.375 l 1
 250 250.375 l 1
 250 187.875 l 1025
187.5 125.375 m 1
 312.5 125.375 l 1
 312.5 187.875 l 1
 187.5 187.875 l 1
 187.5 125.375 l 1025
125 62.875 m 1
 125 125.375 l 1
 250 125.375 l 1
 250 62.875 l 1
 125 62.875 l 1
EndSplineSet
EndChar

StartChar: question
Encoding: 63 63 32
Width: 562
VWidth: 875
Flags: HW
LayerCount: 2
Back
Fore
SplineSet
125 562.875 m 1
 437.5 562.875 l 1
 437.5 625.375 l 1
 125 625.375 l 1
 125 562.875 l 1025
62.5 500.375 m 1
 187.5 500.375 l 1
 187.5 562.875 l 1
 62.5 562.875 l 1
 62.5 500.375 l 1025
375 500.375 m 1
 500 500.375 l 1
 500 562.875 l 1
 375 562.875 l 1
 375 500.375 l 1025
375 437.875 m 1
 500 437.875 l 1
 500 500.375 l 1
 375 500.375 l 1
 375 437.875 l 1025
375 375.375 m 1
 500 375.375 l 1
 500 437.875 l 1
 375 437.875 l 1
 375 375.375 l 1025
250 312.875 m 1
 437.5 312.875 l 1
 437.5 375.375 l 1
 250 375.375 l 1
 250 312.875 l 1025
187.5 250.375 m 1
 312.5 250.375 l 1
 312.5 312.875 l 1
 187.5 312.875 l 1
 187.5 250.375 l 1025
187.5 187.875 m 1
 312.5 187.875 l 1
 312.5 250.375 l 1
 187.5 250.375 l 1
 187.5 187.875 l 1025
187.5 62.875 m 1
 312.5 62.875 l 1
 312.5 125.375 l 1
 187.5 125.375 l 1
 187.5 62.875 l 1025
187.5 0.375 m 1
 187.5 62.875 l 1
 312.5 62.875 l 1
 312.5 0.375 l 1
 187.5 0.375 l 1
EndSplineSet
EndChar

StartChar: at
Encoding: 64 64 33
Width: 562
VWidth: 875
Flags: HW
LayerCount: 2
Back
Fore
SplineSet
187.5 562.875 m 1
 437.5 562.875 l 1
 437.5 625.375 l 1
 187.5 625.375 l 1
 187.5 562.875 l 1025
62.5 500.375 m 1
 187.5 500.375 l 1
 187.5 562.875 l 1
 62.5 562.875 l 1
 62.5 500.375 l 1025
375 500.375 m 1
 500 500.375 l 1
 500 562.875 l 1
 375 562.875 l 1
 375 500.375 l 1025
62.5 437.875 m 1
 125 437.875 l 1
 125 500.375 l 1
 62.5 500.375 l 1
 62.5 437.875 l 1025
375 437.875 m 1
 500 437.875 l 1
 500 500.375 l 1
 375 500.375 l 1
 375 437.875 l 1025
0 375.375 m 1
 62.5 375.375 l 1
 62.5 437.875 l 1
 0 437.875 l 1
 0 375.375 l 1025
250 375.375 m 1
 500 375.375 l 1
 500 437.875 l 1
 250 437.875 l 1
 250 375.375 l 1025
0 312.875 m 1
 62.5 312.875 l 1
 62.5 375.375 l 1
 0 375.375 l 1
 0 312.875 l 1025
187.5 312.875 m 1
 312.5 312.875 l 1
 312.5 375.375 l 1
 187.5 375.375 l 1
 187.5 312.875 l 1025
375 312.875 m 1
 500 312.875 l 1
 500 375.375 l 1
 375 375.375 l 1
 375 312.875 l 1025
0 250.375 m 1
 62.5 250.375 l 1
 62.5 312.875 l 1
 0 312.875 l 1
 0 250.375 l 1025
187.5 250.375 m 1
 312.5 250.375 l 1
 312.5 312.875 l 1
 187.5 312.875 l 1
 187.5 250.375 l 1025
375 250.375 m 1
 500 250.375 l 1
 500 312.875 l 1
 375 312.875 l 1
 375 250.375 l 1025
0 187.875 m 1
 62.5 187.875 l 1
 62.5 250.375 l 1
 0 250.375 l 1
 0 187.875 l 1025
187.5 187.875 m 1
 312.5 187.875 l 1
 312.5 250.375 l 1
 187.5 250.375 l 1
 187.5 187.875 l 1025
375 187.875 m 1
 500 187.875 l 1
 500 250.375 l 1
 375 250.375 l 1
 375 187.875 l 1025
62.5 125.375 m 1
 125 125.375 l 1
 125 187.875 l 1
 62.5 187.875 l 1
 62.5 125.375 l 1025
250 125.375 m 1
 375 125.375 l 1
 375 187.875 l 1
 250 187.875 l 1
 250 125.375 l 1025
437.5 125.375 m 1
 562.5 125.375 l 1
 562.5 187.875 l 1
 437.5 187.875 l 1
 437.5 125.375 l 1025
62.5 62.875 m 1
 187.5 62.875 l 1
 187.5 125.375 l 1
 62.5 125.375 l 1
 62.5 62.875 l 1025
187.5 0.375 m 1
 187.5 62.875 l 1
 437.5 62.875 l 1
 437.5 0.375 l 1
 187.5 0.375 l 1
EndSplineSet
EndChar

StartChar: A
Encoding: 65 65 34
Width: 562
VWidth: 875
Flags: HW
LayerCount: 2
Back
Fore
SplineSet
250 562.875 m 1
 375 562.875 l 1
 375 625.375 l 1
 250 625.375 l 1
 250 562.875 l 1025
250 500.375 m 1
 375 500.375 l 1
 375 562.875 l 1
 250 562.875 l 1
 250 500.375 l 1025
187.5 437.875 m 1
 250 437.875 l 1
 250 500.375 l 1
 187.5 500.375 l 1
 187.5 437.875 l 1025
312.5 437.875 m 1
 437.5 437.875 l 1
 437.5 500.375 l 1
 312.5 500.375 l 1
 312.5 437.875 l 1025
187.5 375.375 m 1
 250 375.375 l 1
 250 437.875 l 1
 187.5 437.875 l 1
 187.5 375.375 l 1025
312.5 375.375 m 1
 437.5 375.375 l 1
 437.5 437.875 l 1
 312.5 437.875 l 1
 312.5 375.375 l 1025
125 312.875 m 1
 250 312.875 l 1
 250 375.375 l 1
 125 375.375 l 1
 125 312.875 l 1025
375 312.875 m 1
 500 312.875 l 1
 500 375.375 l 1
 375 375.375 l 1
 375 312.875 l 1025
125 250.375 m 1
 187.5 250.375 l 1
 187.5 312.875 l 1
 125 312.875 l 1
 125 250.375 l 1025
375 250.375 m 1
 500 250.375 l 1
 500 312.875 l 1
 375 312.875 l 1
 375 250.375 l 1025
62.5 187.875 m 1
 500 187.875 l 1
 500 250.375 l 1
 62.5 250.375 l 1
 62.5 187.875 l 1025
62.5 125.375 m 1
 187.5 125.375 l 1
 187.5 187.875 l 1
 62.5 187.875 l 1
 62.5 125.375 l 1025
437.5 125.375 m 1
 562.5 125.375 l 1
 562.5 187.875 l 1
 437.5 187.875 l 1
 437.5 125.375 l 1025
62.5 62.875 m 1
 187.5 62.875 l 1
 187.5 125.375 l 1
 62.5 125.375 l 1
 62.5 62.875 l 1025
437.5 62.875 m 1
 562.5 62.875 l 1
 562.5 125.375 l 1
 437.5 125.375 l 1
 437.5 62.875 l 1025
62.5 0.375 m 1
 187.5 0.375 l 1
 187.5 62.875 l 1
 62.5 62.875 l 1
 62.5 0.375 l 1025
437.5 0.375 m 1
 437.5 62.875 l 1
 562.5 62.875 l 1
 562.5 0.375 l 1
 437.5 0.375 l 1
EndSplineSet
EndChar

StartChar: B
Encoding: 66 66 35
Width: 562
VWidth: 875
Flags: HW
LayerCount: 2
Back
Fore
SplineSet
125 562.875 m 1
 437.5 562.875 l 1
 437.5 625.375 l 1
 125 625.375 l 1
 125 562.875 l 1025
125 500.375 m 1
 250 500.375 l 1
 250 562.875 l 1
 125 562.875 l 1
 125 500.375 l 1025
375 500.375 m 1
 500 500.375 l 1
 500 562.875 l 1
 375 562.875 l 1
 375 500.375 l 1025
125 437.875 m 1
 250 437.875 l 1
 250 500.375 l 1
 125 500.375 l 1
 125 437.875 l 1025
375 437.875 m 1
 500 437.875 l 1
 500 500.375 l 1
 375 500.375 l 1
 375 437.875 l 1025
125 375.375 m 1
 250 375.375 l 1
 250 437.875 l 1
 125 437.875 l 1
 125 375.375 l 1025
375 375.375 m 1
 437.5 375.375 l 1
 437.5 437.875 l 1
 375 437.875 l 1
 375 375.375 l 1025
125 312.875 m 1
 375 312.875 l 1
 375 375.375 l 1
 125 375.375 l 1
 125 312.875 l 1025
125 250.375 m 1
 250 250.375 l 1
 250 312.875 l 1
 125 312.875 l 1
 125 250.375 l 1025
375 250.375 m 1
 437.5 250.375 l 1
 437.5 312.875 l 1
 375 312.875 l 1
 375 250.375 l 1025
125 187.875 m 1
 250 187.875 l 1
 250 250.375 l 1
 125 250.375 l 1
 125 187.875 l 1025
375 187.875 m 1
 500 187.875 l 1
 500 250.375 l 1
 375 250.375 l 1
 375 187.875 l 1025
125 125.375 m 1
 250 125.375 l 1
 250 187.875 l 1
 125 187.875 l 1
 125 125.375 l 1025
375 125.375 m 1
 500 125.375 l 1
 500 187.875 l 1
 375 187.875 l 1
 375 125.375 l 1025
125 62.875 m 1
 250 62.875 l 1
 250 125.375 l 1
 125 125.375 l 1
 125 62.875 l 1025
375 62.875 m 1
 500 62.875 l 1
 500 125.375 l 1
 375 125.375 l 1
 375 62.875 l 1025
125 0.375 m 1
 125 62.875 l 1
 437.5 62.875 l 1
 437.5 0.375 l 1
 125 0.375 l 1
EndSplineSet
EndChar

StartChar: C
Encoding: 67 67 36
Width: 562
VWidth: 875
Flags: HW
LayerCount: 2
Back
Fore
SplineSet
187.5 562.875 m 1
 437.5 562.875 l 1
 437.5 625.375 l 1
 187.5 625.375 l 1
 187.5 562.875 l 1025
125 500.375 m 1
 250 500.375 l 1
 250 562.875 l 1
 125 562.875 l 1
 125 500.375 l 1025
375 500.375 m 1
 500 500.375 l 1
 500 562.875 l 1
 375 562.875 l 1
 375 500.375 l 1025
62.5 437.875 m 1
 187.5 437.875 l 1
 187.5 500.375 l 1
 62.5 500.375 l 1
 62.5 437.875 l 1025
62.5 375.375 m 1
 187.5 375.375 l 1
 187.5 437.875 l 1
 62.5 437.875 l 1
 62.5 375.375 l 1025
62.5 312.875 m 1
 187.5 312.875 l 1
 187.5 375.375 l 1
 62.5 375.375 l 1
 62.5 312.875 l 1025
62.5 250.375 m 1
 187.5 250.375 l 1
 187.5 312.875 l 1
 62.5 312.875 l 1
 62.5 250.375 l 1025
62.5 187.875 m 1
 187.5 187.875 l 1
 187.5 250.375 l 1
 62.5 250.375 l 1
 62.5 187.875 l 1025
62.5 125.375 m 1
 187.5 125.375 l 1
 187.5 187.875 l 1
 62.5 187.875 l 1
 62.5 125.375 l 1025
125 62.875 m 1
 250 62.875 l 1
 250 125.375 l 1
 125 125.375 l 1
 125 62.875 l 1025
375 62.875 m 1
 500 62.875 l 1
 500 125.375 l 1
 375 125.375 l 1
 375 62.875 l 1025
187.5 0.375 m 1
 187.5 62.875 l 1
 437.5 62.875 l 1
 437.5 0.375 l 1
 187.5 0.375 l 1
EndSplineSet
EndChar

StartChar: D
Encoding: 68 68 37
Width: 562
VWidth: 875
Flags: HW
LayerCount: 2
Back
Fore
SplineSet
62.5 562.875 m 1
 375 562.875 l 1
 375 625.375 l 1
 62.5 625.375 l 1
 62.5 562.875 l 1025
62.5 500.375 m 1
 187.5 500.375 l 1
 187.5 562.875 l 1
 62.5 562.875 l 1
 62.5 500.375 l 1025
312.5 500.375 m 1
 437.5 500.375 l 1
 437.5 562.875 l 1
 312.5 562.875 l 1
 312.5 500.375 l 1025
62.5 437.875 m 1
 187.5 437.875 l 1
 187.5 500.375 l 1
 62.5 500.375 l 1
 62.5 437.875 l 1025
375 437.875 m 1
 500 437.875 l 1
 500 500.375 l 1
 375 500.375 l 1
 375 437.875 l 1025
62.5 375.375 m 1
 187.5 375.375 l 1
 187.5 437.875 l 1
 62.5 437.875 l 1
 62.5 375.375 l 1025
375 375.375 m 1
 500 375.375 l 1
 500 437.875 l 1
 375 437.875 l 1
 375 375.375 l 1025
62.5 312.875 m 1
 187.5 312.875 l 1
 187.5 375.375 l 1
 62.5 375.375 l 1
 62.5 312.875 l 1025
375 312.875 m 1
 500 312.875 l 1
 500 375.375 l 1
 375 375.375 l 1
 375 312.875 l 1025
62.5 250.375 m 1
 187.5 250.375 l 1
 187.5 312.875 l 1
 62.5 312.875 l 1
 62.5 250.375 l 1025
375 250.375 m 1
 500 250.375 l 1
 500 312.875 l 1
 375 312.875 l 1
 375 250.375 l 1025
62.5 187.875 m 1
 187.5 187.875 l 1
 187.5 250.375 l 1
 62.5 250.375 l 1
 62.5 187.875 l 1025
375 187.875 m 1
 500 187.875 l 1
 500 250.375 l 1
 375 250.375 l 1
 375 187.875 l 1025
62.5 125.375 m 1
 187.5 125.375 l 1
 187.5 187.875 l 1
 62.5 187.875 l 1
 62.5 125.375 l 1025
375 125.375 m 1
 500 125.375 l 1
 500 187.875 l 1
 375 187.875 l 1
 375 125.375 l 1025
62.5 62.875 m 1
 187.5 62.875 l 1
 187.5 125.375 l 1
 62.5 125.375 l 1
 62.5 62.875 l 1025
312.5 62.875 m 1
 437.5 62.875 l 1
 437.5 125.375 l 1
 312.5 125.375 l 1
 312.5 62.875 l 1025
62.5 0.375 m 1
 62.5 62.875 l 1
 375 62.875 l 1
 375 0.375 l 1
 62.5 0.375 l 1
EndSplineSet
EndChar

StartChar: E
Encoding: 69 69 38
Width: 562
VWidth: 875
Flags: HW
LayerCount: 2
Back
Fore
SplineSet
125 562.875 m 1
 500 562.875 l 1
 500 625.375 l 1
 125 625.375 l 1
 125 562.875 l 1025
125 500.375 m 1
 250 500.375 l 1
 250 562.875 l 1
 125 562.875 l 1
 125 500.375 l 1025
125 437.875 m 1
 250 437.875 l 1
 250 500.375 l 1
 125 500.375 l 1
 125 437.875 l 1025
125 375.375 m 1
 250 375.375 l 1
 250 437.875 l 1
 125 437.875 l 1
 125 375.375 l 1025
125 312.875 m 1
 437.5 312.875 l 1
 437.5 375.375 l 1
 125 375.375 l 1
 125 312.875 l 1025
125 250.375 m 1
 250 250.375 l 1
 250 312.875 l 1
 125 312.875 l 1
 125 250.375 l 1025
125 187.875 m 1
 250 187.875 l 1
 250 250.375 l 1
 125 250.375 l 1
 125 187.875 l 1025
125 125.375 m 1
 250 125.375 l 1
 250 187.875 l 1
 125 187.875 l 1
 125 125.375 l 1025
125 62.875 m 1
 250 62.875 l 1
 250 125.375 l 1
 125 125.375 l 1
 125 62.875 l 1025
125 0.375 m 1
 125 62.875 l 1
 500 62.875 l 1
 500 0.375 l 1
 125 0.375 l 1
EndSplineSet
EndChar

StartChar: F
Encoding: 70 70 39
Width: 562
VWidth: 875
Flags: HW
LayerCount: 2
Back
Fore
SplineSet
125 562.875 m 1
 500 562.875 l 1
 500 625.375 l 1
 125 625.375 l 1
 125 562.875 l 1025
125 500.375 m 1
 250 500.375 l 1
 250 562.875 l 1
 125 562.875 l 1
 125 500.375 l 1025
125 437.875 m 1
 250 437.875 l 1
 250 500.375 l 1
 125 500.375 l 1
 125 437.875 l 1025
125 375.375 m 1
 250 375.375 l 1
 250 437.875 l 1
 125 437.875 l 1
 125 375.375 l 1025
125 312.875 m 1
 250 312.875 l 1
 250 375.375 l 1
 125 375.375 l 1
 125 312.875 l 1025
125 250.375 m 1
 500 250.375 l 1
 500 312.875 l 1
 125 312.875 l 1
 125 250.375 l 1025
125 187.875 m 1
 250 187.875 l 1
 250 250.375 l 1
 125 250.375 l 1
 125 187.875 l 1025
125 125.375 m 1
 250 125.375 l 1
 250 187.875 l 1
 125 187.875 l 1
 125 125.375 l 1025
125 62.875 m 1
 250 62.875 l 1
 250 125.375 l 1
 125 125.375 l 1
 125 62.875 l 1025
125 0.375 m 1
 125 62.875 l 1
 250 62.875 l 1
 250 0.375 l 1
 125 0.375 l 1
EndSplineSet
EndChar

StartChar: G
Encoding: 71 71 40
Width: 562
VWidth: 875
Flags: HW
LayerCount: 2
Back
Fore
SplineSet
187.5 562.875 m 1
 437.5 562.875 l 1
 437.5 625.375 l 1
 187.5 625.375 l 1
 187.5 562.875 l 1025
125 500.375 m 1
 250 500.375 l 1
 250 562.875 l 1
 125 562.875 l 1
 125 500.375 l 1025
375 500.375 m 1
 500 500.375 l 1
 500 562.875 l 1
 375 562.875 l 1
 375 500.375 l 1025
62.5 437.875 m 1
 187.5 437.875 l 1
 187.5 500.375 l 1
 62.5 500.375 l 1
 62.5 437.875 l 1025
62.5 375.375 m 1
 187.5 375.375 l 1
 187.5 437.875 l 1
 62.5 437.875 l 1
 62.5 375.375 l 1025
62.5 312.875 m 1
 187.5 312.875 l 1
 187.5 375.375 l 1
 62.5 375.375 l 1
 62.5 312.875 l 1025
62.5 250.375 m 1
 187.5 250.375 l 1
 187.5 312.875 l 1
 62.5 312.875 l 1
 62.5 250.375 l 1025
375 250.375 m 1
 500 250.375 l 1
 500 312.875 l 1
 375 312.875 l 1
 375 250.375 l 1025
62.5 187.875 m 1
 187.5 187.875 l 1
 187.5 250.375 l 1
 62.5 250.375 l 1
 62.5 187.875 l 1025
375 187.875 m 1
 500 187.875 l 1
 500 250.375 l 1
 375 250.375 l 1
 375 187.875 l 1025
62.5 125.375 m 1
 187.5 125.375 l 1
 187.5 187.875 l 1
 62.5 187.875 l 1
 62.5 125.375 l 1025
375 125.375 m 1
 500 125.375 l 1
 500 187.875 l 1
 375 187.875 l 1
 375 125.375 l 1025
125 62.875 m 1
 250 62.875 l 1
 250 125.375 l 1
 125 125.375 l 1
 125 62.875 l 1025
375 62.875 m 1
 500 62.875 l 1
 500 125.375 l 1
 375 125.375 l 1
 375 62.875 l 1025
187.5 0.375 m 1
 187.5 62.875 l 1
 500 62.875 l 1
 500 0.375 l 1
 187.5 0.375 l 1
EndSplineSet
EndChar

StartChar: H
Encoding: 72 72 41
Width: 562
VWidth: 875
Flags: HW
LayerCount: 2
Back
Fore
SplineSet
62.5 562.875 m 1
 187.5 562.875 l 1
 187.5 625.375 l 1
 62.5 625.375 l 1
 62.5 562.875 l 1025
375 562.875 m 1
 500 562.875 l 1
 500 625.375 l 1
 375 625.375 l 1
 375 562.875 l 1025
62.5 500.375 m 1
 187.5 500.375 l 1
 187.5 562.875 l 1
 62.5 562.875 l 1
 62.5 500.375 l 1025
375 500.375 m 1
 500 500.375 l 1
 500 562.875 l 1
 375 562.875 l 1
 375 500.375 l 1025
62.5 437.875 m 1
 187.5 437.875 l 1
 187.5 500.375 l 1
 62.5 500.375 l 1
 62.5 437.875 l 1025
375 437.875 m 1
 500 437.875 l 1
 500 500.375 l 1
 375 500.375 l 1
 375 437.875 l 1025
62.5 375.375 m 1
 187.5 375.375 l 1
 187.5 437.875 l 1
 62.5 437.875 l 1
 62.5 375.375 l 1025
375 375.375 m 1
 500 375.375 l 1
 500 437.875 l 1
 375 437.875 l 1
 375 375.375 l 1025
62.5 312.875 m 1
 500 312.875 l 1
 500 375.375 l 1
 62.5 375.375 l 1
 62.5 312.875 l 1025
62.5 250.375 m 1
 187.5 250.375 l 1
 187.5 312.875 l 1
 62.5 312.875 l 1
 62.5 250.375 l 1025
375 250.375 m 1
 500 250.375 l 1
 500 312.875 l 1
 375 312.875 l 1
 375 250.375 l 1025
62.5 187.875 m 1
 187.5 187.875 l 1
 187.5 250.375 l 1
 62.5 250.375 l 1
 62.5 187.875 l 1025
375 187.875 m 1
 500 187.875 l 1
 500 250.375 l 1
 375 250.375 l 1
 375 187.875 l 1025
62.5 125.375 m 1
 187.5 125.375 l 1
 187.5 187.875 l 1
 62.5 187.875 l 1
 62.5 125.375 l 1025
375 125.375 m 1
 500 125.375 l 1
 500 187.875 l 1
 375 187.875 l 1
 375 125.375 l 1025
62.5 62.875 m 1
 187.5 62.875 l 1
 187.5 125.375 l 1
 62.5 125.375 l 1
 62.5 62.875 l 1025
375 62.875 m 1
 500 62.875 l 1
 500 125.375 l 1
 375 125.375 l 1
 375 62.875 l 1025
62.5 0.375 m 1
 187.5 0.375 l 1
 187.5 62.875 l 1
 62.5 62.875 l 1
 62.5 0.375 l 1025
375 0.375 m 1
 375 62.875 l 1
 500 62.875 l 1
 500 0.375 l 1
 375 0.375 l 1
EndSplineSet
EndChar

StartChar: I
Encoding: 73 73 42
Width: 562
VWidth: 875
Flags: HW
LayerCount: 2
Back
Fore
SplineSet
125 562.875 m 1
 500 562.875 l 1
 500 625.375 l 1
 125 625.375 l 1
 125 562.875 l 1025
250 500.375 m 1
 375 500.375 l 1
 375 562.875 l 1
 250 562.875 l 1
 250 500.375 l 1025
250 437.875 m 1
 375 437.875 l 1
 375 500.375 l 1
 250 500.375 l 1
 250 437.875 l 1025
250 375.375 m 1
 375 375.375 l 1
 375 437.875 l 1
 250 437.875 l 1
 250 375.375 l 1025
250 312.875 m 1
 375 312.875 l 1
 375 375.375 l 1
 250 375.375 l 1
 250 312.875 l 1025
250 250.375 m 1
 375 250.375 l 1
 375 312.875 l 1
 250 312.875 l 1
 250 250.375 l 1025
250 187.875 m 1
 375 187.875 l 1
 375 250.375 l 1
 250 250.375 l 1
 250 187.875 l 1025
250 125.375 m 1
 375 125.375 l 1
 375 187.875 l 1
 250 187.875 l 1
 250 125.375 l 1025
250 62.875 m 1
 375 62.875 l 1
 375 125.375 l 1
 250 125.375 l 1
 250 62.875 l 1025
125 0.375 m 1
 125 62.875 l 1
 500 62.875 l 1
 500 0.375 l 1
 125 0.375 l 1
EndSplineSet
EndChar

StartChar: J
Encoding: 74 74 43
Width: 562
VWidth: 875
Flags: HW
LayerCount: 2
Back
Fore
SplineSet
125 562.875 m 1
 437.5 562.875 l 1
 437.5 625.375 l 1
 125 625.375 l 1
 125 562.875 l 1025
312.5 500.375 m 1
 437.5 500.375 l 1
 437.5 562.875 l 1
 312.5 562.875 l 1
 312.5 500.375 l 1025
312.5 437.875 m 1
 437.5 437.875 l 1
 437.5 500.375 l 1
 312.5 500.375 l 1
 312.5 437.875 l 1025
312.5 375.375 m 1
 437.5 375.375 l 1
 437.5 437.875 l 1
 312.5 437.875 l 1
 312.5 375.375 l 1025
312.5 312.875 m 1
 437.5 312.875 l 1
 437.5 375.375 l 1
 312.5 375.375 l 1
 312.5 312.875 l 1025
312.5 250.375 m 1
 437.5 250.375 l 1
 437.5 312.875 l 1
 312.5 312.875 l 1
 312.5 250.375 l 1025
312.5 187.875 m 1
 437.5 187.875 l 1
 437.5 250.375 l 1
 312.5 250.375 l 1
 312.5 187.875 l 1025
312.5 125.375 m 1
 437.5 125.375 l 1
 437.5 187.875 l 1
 312.5 187.875 l 1
 312.5 125.375 l 1025
250 62.875 m 1
 375 62.875 l 1
 375 125.375 l 1
 250 125.375 l 1
 250 62.875 l 1025
62.5 0.375 m 1
 62.5 62.875 l 1
 312.5 62.875 l 1
 312.5 0.375 l 1
 62.5 0.375 l 1
EndSplineSet
EndChar

StartChar: K
Encoding: 75 75 44
Width: 562
VWidth: 875
Flags: HW
LayerCount: 2
Back
Fore
SplineSet
62.5 562.875 m 1
 187.5 562.875 l 1
 187.5 625.375 l 1
 62.5 625.375 l 1
 62.5 562.875 l 1025
375 562.875 m 1
 500 562.875 l 1
 500 625.375 l 1
 375 625.375 l 1
 375 562.875 l 1025
62.5 500.375 m 1
 187.5 500.375 l 1
 187.5 562.875 l 1
 62.5 562.875 l 1
 62.5 500.375 l 1025
312.5 500.375 m 1
 437.5 500.375 l 1
 437.5 562.875 l 1
 312.5 562.875 l 1
 312.5 500.375 l 1025
62.5 437.875 m 1
 187.5 437.875 l 1
 187.5 500.375 l 1
 62.5 500.375 l 1
 62.5 437.875 l 1025
312.5 437.875 m 1
 375 437.875 l 1
 375 500.375 l 1
 312.5 500.375 l 1
 312.5 437.875 l 1025
62.5 375.375 m 1
 187.5 375.375 l 1
 187.5 437.875 l 1
 62.5 437.875 l 1
 62.5 375.375 l 1025
250 375.375 m 1
 312.5 375.375 l 1
 312.5 437.875 l 1
 250 437.875 l 1
 250 375.375 l 1025
62.5 312.875 m 1
 312.5 312.875 l 1
 312.5 375.375 l 1
 62.5 375.375 l 1
 62.5 312.875 l 1025
62.5 250.375 m 1
 187.5 250.375 l 1
 187.5 312.875 l 1
 62.5 312.875 l 1
 62.5 250.375 l 1025
250 250.375 m 1
 375 250.375 l 1
 375 312.875 l 1
 250 312.875 l 1
 250 250.375 l 1025
62.5 187.875 m 1
 187.5 187.875 l 1
 187.5 250.375 l 1
 62.5 250.375 l 1
 62.5 187.875 l 1025
312.5 187.875 m 1
 437.5 187.875 l 1
 437.5 250.375 l 1
 312.5 250.375 l 1
 312.5 187.875 l 1025
62.5 125.375 m 1
 187.5 125.375 l 1
 187.5 187.875 l 1
 62.5 187.875 l 1
 62.5 125.375 l 1025
312.5 125.375 m 1
 437.5 125.375 l 1
 437.5 187.875 l 1
 312.5 187.875 l 1
 312.5 125.375 l 1025
62.5 62.875 m 1
 187.5 62.875 l 1
 187.5 125.375 l 1
 62.5 125.375 l 1
 62.5 62.875 l 1025
375 62.875 m 1
 500 62.875 l 1
 500 125.375 l 1
 375 125.375 l 1
 375 62.875 l 1025
62.5 0.375 m 1
 187.5 0.375 l 1
 187.5 62.875 l 1
 62.5 62.875 l 1
 62.5 0.375 l 1025
375 0.375 m 1
 375 62.875 l 1
 500 62.875 l 1
 500 0.375 l 1
 375 0.375 l 1
EndSplineSet
EndChar

StartChar: L
Encoding: 76 76 45
Width: 562
VWidth: 875
Flags: HW
LayerCount: 2
Back
Fore
SplineSet
125 562.875 m 1
 250 562.875 l 1
 250 625.375 l 1
 125 625.375 l 1
 125 562.875 l 1025
125 500.375 m 1
 250 500.375 l 1
 250 562.875 l 1
 125 562.875 l 1
 125 500.375 l 1025
125 437.875 m 1
 250 437.875 l 1
 250 500.375 l 1
 125 500.375 l 1
 125 437.875 l 1025
125 375.375 m 1
 250 375.375 l 1
 250 437.875 l 1
 125 437.875 l 1
 125 375.375 l 1025
125 312.875 m 1
 250 312.875 l 1
 250 375.375 l 1
 125 375.375 l 1
 125 312.875 l 1025
125 250.375 m 1
 250 250.375 l 1
 250 312.875 l 1
 125 312.875 l 1
 125 250.375 l 1025
125 187.875 m 1
 250 187.875 l 1
 250 250.375 l 1
 125 250.375 l 1
 125 187.875 l 1025
125 125.375 m 1
 250 125.375 l 1
 250 187.875 l 1
 125 187.875 l 1
 125 125.375 l 1025
125 62.875 m 1
 250 62.875 l 1
 250 125.375 l 1
 125 125.375 l 1
 125 62.875 l 1025
125 0.375 m 1
 125 62.875 l 1
 500 62.875 l 1
 500 0.375 l 1
 125 0.375 l 1
EndSplineSet
EndChar

StartChar: M
Encoding: 77 77 46
Width: 562
VWidth: 875
Flags: HW
LayerCount: 2
Back
Fore
SplineSet
62.5 562.875 m 1
 187.5 562.875 l 1
 187.5 625.375 l 1
 62.5 625.375 l 1
 62.5 562.875 l 1025
437.5 562.875 m 1
 562.5 562.875 l 1
 562.5 625.375 l 1
 437.5 625.375 l 1
 437.5 562.875 l 1025
62.5 500.375 m 1
 187.5 500.375 l 1
 187.5 562.875 l 1
 62.5 562.875 l 1
 62.5 500.375 l 1025
437.5 500.375 m 1
 562.5 500.375 l 1
 562.5 562.875 l 1
 437.5 562.875 l 1
 437.5 500.375 l 1025
62.5 437.875 m 1
 250 437.875 l 1
 250 500.375 l 1
 62.5 500.375 l 1
 62.5 437.875 l 1025
375 437.875 m 1
 562.5 437.875 l 1
 562.5 500.375 l 1
 375 500.375 l 1
 375 437.875 l 1025
62.5 375.375 m 1
 250 375.375 l 1
 250 437.875 l 1
 62.5 437.875 l 1
 62.5 375.375 l 1025
375 375.375 m 1
 562.5 375.375 l 1
 562.5 437.875 l 1
 375 437.875 l 1
 375 375.375 l 1025
62.5 312.875 m 1
 250 312.875 l 1
 250 375.375 l 1
 62.5 375.375 l 1
 62.5 312.875 l 1025
312.5 312.875 m 1
 562.5 312.875 l 1
 562.5 375.375 l 1
 312.5 375.375 l 1
 312.5 312.875 l 1025
62.5 250.375 m 1
 125 250.375 l 1
 125 312.875 l 1
 62.5 312.875 l 1
 62.5 250.375 l 1025
187.5 250.375 m 1
 375 250.375 l 1
 375 312.875 l 1
 187.5 312.875 l 1
 187.5 250.375 l 1025
437.5 250.375 m 1
 562.5 250.375 l 1
 562.5 312.875 l 1
 437.5 312.875 l 1
 437.5 250.375 l 1025
62.5 187.875 m 1
 125 187.875 l 1
 125 250.375 l 1
 62.5 250.375 l 1
 62.5 187.875 l 1025
187.5 187.875 m 1
 375 187.875 l 1
 375 250.375 l 1
 187.5 250.375 l 1
 187.5 187.875 l 1025
437.5 187.875 m 1
 562.5 187.875 l 1
 562.5 250.375 l 1
 437.5 250.375 l 1
 437.5 187.875 l 1025
62.5 125.375 m 1
 125 125.375 l 1
 125 187.875 l 1
 62.5 187.875 l 1
 62.5 125.375 l 1025
250 125.375 m 1
 312.5 125.375 l 1
 312.5 187.875 l 1
 250 187.875 l 1
 250 125.375 l 1025
437.5 125.375 m 1
 562.5 125.375 l 1
 562.5 187.875 l 1
 437.5 187.875 l 1
 437.5 125.375 l 1025
62.5 62.875 m 1
 125 62.875 l 1
 125 125.375 l 1
 62.5 125.375 l 1
 62.5 62.875 l 1025
437.5 62.875 m 1
 562.5 62.875 l 1
 562.5 125.375 l 1
 437.5 125.375 l 1
 437.5 62.875 l 1025
62.5 0.375 m 1
 125 0.375 l 1
 125 62.875 l 1
 62.5 62.875 l 1
 62.5 0.375 l 1025
437.5 0.375 m 1
 437.5 62.875 l 1
 562.5 62.875 l 1
 562.5 0.375 l 1
 437.5 0.375 l 1
EndSplineSet
EndChar

StartChar: N
Encoding: 78 78 47
Width: 562
VWidth: 875
Flags: HW
LayerCount: 2
Back
Fore
SplineSet
62.5 562.875 m 1
 187.5 562.875 l 1
 187.5 625.375 l 1
 62.5 625.375 l 1
 62.5 562.875 l 1025
437.5 562.875 m 1
 500 562.875 l 1
 500 625.375 l 1
 437.5 625.375 l 1
 437.5 562.875 l 1025
62.5 500.375 m 1
 250 500.375 l 1
 250 562.875 l 1
 62.5 562.875 l 1
 62.5 500.375 l 1025
437.5 500.375 m 1
 500 500.375 l 1
 500 562.875 l 1
 437.5 562.875 l 1
 437.5 500.375 l 1025
62.5 437.875 m 1
 250 437.875 l 1
 250 500.375 l 1
 62.5 500.375 l 1
 62.5 437.875 l 1025
437.5 437.875 m 1
 500 437.875 l 1
 500 500.375 l 1
 437.5 500.375 l 1
 437.5 437.875 l 1025
62.5 375.375 m 1
 125 375.375 l 1
 125 437.875 l 1
 62.5 437.875 l 1
 62.5 375.375 l 1025
187.5 375.375 m 1
 312.5 375.375 l 1
 312.5 437.875 l 1
 187.5 437.875 l 1
 187.5 375.375 l 1025
437.5 375.375 m 1
 500 375.375 l 1
 500 437.875 l 1
 437.5 437.875 l 1
 437.5 375.375 l 1025
62.5 312.875 m 1
 125 312.875 l 1
 125 375.375 l 1
 62.5 375.375 l 1
 62.5 312.875 l 1025
187.5 312.875 m 1
 312.5 312.875 l 1
 312.5 375.375 l 1
 187.5 375.375 l 1
 187.5 312.875 l 1025
437.5 312.875 m 1
 500 312.875 l 1
 500 375.375 l 1
 437.5 375.375 l 1
 437.5 312.875 l 1025
62.5 250.375 m 1
 125 250.375 l 1
 125 312.875 l 1
 62.5 312.875 l 1
 62.5 250.375 l 1025
250 250.375 m 1
 375 250.375 l 1
 375 312.875 l 1
 250 312.875 l 1
 250 250.375 l 1025
437.5 250.375 m 1
 500 250.375 l 1
 500 312.875 l 1
 437.5 312.875 l 1
 437.5 250.375 l 1025
62.5 187.875 m 1
 125 187.875 l 1
 125 250.375 l 1
 62.5 250.375 l 1
 62.5 187.875 l 1025
250 187.875 m 1
 375 187.875 l 1
 375 250.375 l 1
 250 250.375 l 1
 250 187.875 l 1025
437.5 187.875 m 1
 500 187.875 l 1
 500 250.375 l 1
 437.5 250.375 l 1
 437.5 187.875 l 1025
62.5 125.375 m 1
 125 125.375 l 1
 125 187.875 l 1
 62.5 187.875 l 1
 62.5 125.375 l 1025
312.5 125.375 m 1
 500 125.375 l 1
 500 187.875 l 1
 312.5 187.875 l 1
 312.5 125.375 l 1025
62.5 62.875 m 1
 125 62.875 l 1
 125 125.375 l 1
 62.5 125.375 l 1
 62.5 62.875 l 1025
312.5 62.875 m 1
 500 62.875 l 1
 500 125.375 l 1
 312.5 125.375 l 1
 312.5 62.875 l 1025
62.5 0.375 m 1
 125 0.375 l 1
 125 62.875 l 1
 62.5 62.875 l 1
 62.5 0.375 l 1025
375 0.375 m 1
 375 62.875 l 1
 500 62.875 l 1
 500 0.375 l 1
 375 0.375 l 1
EndSplineSet
EndChar

StartChar: O
Encoding: 79 79 48
Width: 562
VWidth: 875
Flags: HW
LayerCount: 2
Back
Fore
SplineSet
187.5 562.875 m 1
 437.5 562.875 l 1
 437.5 625.375 l 1
 187.5 625.375 l 1
 187.5 562.875 l 1025
125 500.375 m 1
 250 500.375 l 1
 250 562.875 l 1
 125 562.875 l 1
 125 500.375 l 1025
375 500.375 m 1
 500 500.375 l 1
 500 562.875 l 1
 375 562.875 l 1
 375 500.375 l 1025
62.5 437.875 m 1
 187.5 437.875 l 1
 187.5 500.375 l 1
 62.5 500.375 l 1
 62.5 437.875 l 1025
437.5 437.875 m 1
 562.5 437.875 l 1
 562.5 500.375 l 1
 437.5 500.375 l 1
 437.5 437.875 l 1025
62.5 375.375 m 1
 187.5 375.375 l 1
 187.5 437.875 l 1
 62.5 437.875 l 1
 62.5 375.375 l 1025
437.5 375.375 m 1
 562.5 375.375 l 1
 562.5 437.875 l 1
 437.5 437.875 l 1
 437.5 375.375 l 1025
62.5 312.875 m 1
 187.5 312.875 l 1
 187.5 375.375 l 1
 62.5 375.375 l 1
 62.5 312.875 l 1025
437.5 312.875 m 1
 562.5 312.875 l 1
 562.5 375.375 l 1
 437.5 375.375 l 1
 437.5 312.875 l 1025
62.5 250.375 m 1
 187.5 250.375 l 1
 187.5 312.875 l 1
 62.5 312.875 l 1
 62.5 250.375 l 1025
437.5 250.375 m 1
 562.5 250.375 l 1
 562.5 312.875 l 1
 437.5 312.875 l 1
 437.5 250.375 l 1025
62.5 187.875 m 1
 187.5 187.875 l 1
 187.5 250.375 l 1
 62.5 250.375 l 1
 62.5 187.875 l 1025
437.5 187.875 m 1
 562.5 187.875 l 1
 562.5 250.375 l 1
 437.5 250.375 l 1
 437.5 187.875 l 1025
62.5 125.375 m 1
 187.5 125.375 l 1
 187.5 187.875 l 1
 62.5 187.875 l 1
 62.5 125.375 l 1025
437.5 125.375 m 1
 562.5 125.375 l 1
 562.5 187.875 l 1
 437.5 187.875 l 1
 437.5 125.375 l 1025
125 62.875 m 1
 250 62.875 l 1
 250 125.375 l 1
 125 125.375 l 1
 125 62.875 l 1025
375 62.875 m 1
 500 62.875 l 1
 500 125.375 l 1
 375 125.375 l 1
 375 62.875 l 1025
187.5 0.375 m 1
 187.5 62.875 l 1
 437.5 62.875 l 1
 437.5 0.375 l 1
 187.5 0.375 l 1
EndSplineSet
EndChar

StartChar: P
Encoding: 80 80 49
Width: 562
VWidth: 875
Flags: HW
LayerCount: 2
Back
Fore
SplineSet
62.5 562.875 m 1
 437.5 562.875 l 1
 437.5 625.375 l 1
 62.5 625.375 l 1
 62.5 562.875 l 1025
62.5 500.375 m 1
 187.5 500.375 l 1
 187.5 562.875 l 1
 62.5 562.875 l 1
 62.5 500.375 l 1025
375 500.375 m 1
 500 500.375 l 1
 500 562.875 l 1
 375 562.875 l 1
 375 500.375 l 1025
62.5 437.875 m 1
 187.5 437.875 l 1
 187.5 500.375 l 1
 62.5 500.375 l 1
 62.5 437.875 l 1025
375 437.875 m 1
 500 437.875 l 1
 500 500.375 l 1
 375 500.375 l 1
 375 437.875 l 1025
62.5 375.375 m 1
 187.5 375.375 l 1
 187.5 437.875 l 1
 62.5 437.875 l 1
 62.5 375.375 l 1025
375 375.375 m 1
 500 375.375 l 1
 500 437.875 l 1
 375 437.875 l 1
 375 375.375 l 1025
62.5 312.875 m 1
 187.5 312.875 l 1
 187.5 375.375 l 1
 62.5 375.375 l 1
 62.5 312.875 l 1025
312.5 312.875 m 1
 437.5 312.875 l 1
 437.5 375.375 l 1
 312.5 375.375 l 1
 312.5 312.875 l 1025
62.5 250.375 m 1
 375 250.375 l 1
 375 312.875 l 1
 62.5 312.875 l 1
 62.5 250.375 l 1025
62.5 187.875 m 1
 187.5 187.875 l 1
 187.5 250.375 l 1
 62.5 250.375 l 1
 62.5 187.875 l 1025
62.5 125.375 m 1
 187.5 125.375 l 1
 187.5 187.875 l 1
 62.5 187.875 l 1
 62.5 125.375 l 1025
62.5 62.875 m 1
 187.5 62.875 l 1
 187.5 125.375 l 1
 62.5 125.375 l 1
 62.5 62.875 l 1025
62.5 0.375 m 1
 62.5 62.875 l 1
 187.5 62.875 l 1
 187.5 0.375 l 1
 62.5 0.375 l 1
EndSplineSet
EndChar

StartChar: Q
Encoding: 81 81 50
Width: 562
VWidth: 875
Flags: HW
LayerCount: 2
Back
Fore
SplineSet
187.5 562.875 m 1
 437.5 562.875 l 1
 437.5 625.375 l 1
 187.5 625.375 l 1
 187.5 562.875 l 1025
125 500.375 m 1
 250 500.375 l 1
 250 562.875 l 1
 125 562.875 l 1
 125 500.375 l 1025
375 500.375 m 1
 500 500.375 l 1
 500 562.875 l 1
 375 562.875 l 1
 375 500.375 l 1025
62.5 437.875 m 1
 187.5 437.875 l 1
 187.5 500.375 l 1
 62.5 500.375 l 1
 62.5 437.875 l 1025
437.5 437.875 m 1
 562.5 437.875 l 1
 562.5 500.375 l 1
 437.5 500.375 l 1
 437.5 437.875 l 1025
62.5 375.375 m 1
 187.5 375.375 l 1
 187.5 437.875 l 1
 62.5 437.875 l 1
 62.5 375.375 l 1025
437.5 375.375 m 1
 562.5 375.375 l 1
 562.5 437.875 l 1
 437.5 437.875 l 1
 437.5 375.375 l 1025
62.5 312.875 m 1
 187.5 312.875 l 1
 187.5 375.375 l 1
 62.5 375.375 l 1
 62.5 312.875 l 1025
437.5 312.875 m 1
 562.5 312.875 l 1
 562.5 375.375 l 1
 437.5 375.375 l 1
 437.5 312.875 l 1025
62.5 250.375 m 1
 187.5 250.375 l 1
 187.5 312.875 l 1
 62.5 312.875 l 1
 62.5 250.375 l 1025
437.5 250.375 m 1
 562.5 250.375 l 1
 562.5 312.875 l 1
 437.5 312.875 l 1
 437.5 250.375 l 1025
62.5 187.875 m 1
 187.5 187.875 l 1
 187.5 250.375 l 1
 62.5 250.375 l 1
 62.5 187.875 l 1025
437.5 187.875 m 1
 562.5 187.875 l 1
 562.5 250.375 l 1
 437.5 250.375 l 1
 437.5 187.875 l 1025
62.5 125.375 m 1
 187.5 125.375 l 1
 187.5 187.875 l 1
 62.5 187.875 l 1
 62.5 125.375 l 1025
437.5 125.375 m 1
 562.5 125.375 l 1
 562.5 187.875 l 1
 437.5 187.875 l 1
 437.5 125.375 l 1025
125 62.875 m 1
 250 62.875 l 1
 250 125.375 l 1
 125 125.375 l 1
 125 62.875 l 1025
375 62.875 m 1
 500 62.875 l 1
 500 125.375 l 1
 375 125.375 l 1
 375 62.875 l 1025
187.5 0.375 m 1
 437.5 0.375 l 1
 437.5 62.875 l 1
 187.5 62.875 l 1
 187.5 0.375 l 1025
375 -62.125 m 1
 500 -62.125 l 1
 500 0.375 l 1
 375 0.375 l 1
 375 -62.125 l 1025
437.5 -124.625 m 1
 437.5 -62.125 l 1
 562.5 -62.125 l 1
 562.5 -124.625 l 1
 437.5 -124.625 l 1
EndSplineSet
EndChar

StartChar: R
Encoding: 82 82 51
Width: 562
VWidth: 875
Flags: HW
LayerCount: 2
Back
Fore
SplineSet
62.5 562.875 m 1
 375 562.875 l 1
 375 625.375 l 1
 62.5 625.375 l 1
 62.5 562.875 l 1025
62.5 500.375 m 1
 187.5 500.375 l 1
 187.5 562.875 l 1
 62.5 562.875 l 1
 62.5 500.375 l 1025
312.5 500.375 m 1
 437.5 500.375 l 1
 437.5 562.875 l 1
 312.5 562.875 l 1
 312.5 500.375 l 1025
62.5 437.875 m 1
 187.5 437.875 l 1
 187.5 500.375 l 1
 62.5 500.375 l 1
 62.5 437.875 l 1025
312.5 437.875 m 1
 437.5 437.875 l 1
 437.5 500.375 l 1
 312.5 500.375 l 1
 312.5 437.875 l 1025
62.5 375.375 m 1
 187.5 375.375 l 1
 187.5 437.875 l 1
 62.5 437.875 l 1
 62.5 375.375 l 1025
312.5 375.375 m 1
 437.5 375.375 l 1
 437.5 437.875 l 1
 312.5 437.875 l 1
 312.5 375.375 l 1025
62.5 312.875 m 1
 187.5 312.875 l 1
 187.5 375.375 l 1
 62.5 375.375 l 1
 62.5 312.875 l 1025
250 312.875 m 1
 375 312.875 l 1
 375 375.375 l 1
 250 375.375 l 1
 250 312.875 l 1025
62.5 250.375 m 1
 312.5 250.375 l 1
 312.5 312.875 l 1
 62.5 312.875 l 1
 62.5 250.375 l 1025
62.5 187.875 m 1
 187.5 187.875 l 1
 187.5 250.375 l 1
 62.5 250.375 l 1
 62.5 187.875 l 1025
312.5 187.875 m 1
 437.5 187.875 l 1
 437.5 250.375 l 1
 312.5 250.375 l 1
 312.5 187.875 l 1025
62.5 125.375 m 1
 187.5 125.375 l 1
 187.5 187.875 l 1
 62.5 187.875 l 1
 62.5 125.375 l 1025
312.5 125.375 m 1
 437.5 125.375 l 1
 437.5 187.875 l 1
 312.5 187.875 l 1
 312.5 125.375 l 1025
62.5 62.875 m 1
 187.5 62.875 l 1
 187.5 125.375 l 1
 62.5 125.375 l 1
 62.5 62.875 l 1025
375 62.875 m 1
 500 62.875 l 1
 500 125.375 l 1
 375 125.375 l 1
 375 62.875 l 1025
62.5 0.375 m 1
 187.5 0.375 l 1
 187.5 62.875 l 1
 62.5 62.875 l 1
 62.5 0.375 l 1025
375 0.375 m 1
 375 62.875 l 1
 500 62.875 l 1
 500 0.375 l 1
 375 0.375 l 1
EndSplineSet
EndChar

StartChar: S
Encoding: 83 83 52
Width: 562
VWidth: 875
Flags: HW
LayerCount: 2
Back
Fore
SplineSet
125 562.875 m 1
 437.5 562.875 l 1
 437.5 625.375 l 1
 125 625.375 l 1
 125 562.875 l 1025
62.5 500.375 m 1
 187.5 500.375 l 1
 187.5 562.875 l 1
 62.5 562.875 l 1
 62.5 500.375 l 1025
375 500.375 m 1
 500 500.375 l 1
 500 562.875 l 1
 375 562.875 l 1
 375 500.375 l 1025
62.5 437.875 m 1
 187.5 437.875 l 1
 187.5 500.375 l 1
 62.5 500.375 l 1
 62.5 437.875 l 1025
62.5 375.375 m 1
 250 375.375 l 1
 250 437.875 l 1
 62.5 437.875 l 1
 62.5 375.375 l 1025
125 312.875 m 1
 375 312.875 l 1
 375 375.375 l 1
 125 375.375 l 1
 125 312.875 l 1025
250 250.375 m 1
 437.5 250.375 l 1
 437.5 312.875 l 1
 250 312.875 l 1
 250 250.375 l 1025
312.5 187.875 m 1
 500 187.875 l 1
 500 250.375 l 1
 312.5 250.375 l 1
 312.5 187.875 l 1025
375 125.375 m 1
 500 125.375 l 1
 500 187.875 l 1
 375 187.875 l 1
 375 125.375 l 1025
62.5 62.875 m 1
 187.5 62.875 l 1
 187.5 125.375 l 1
 62.5 125.375 l 1
 62.5 62.875 l 1025
375 62.875 m 1
 500 62.875 l 1
 500 125.375 l 1
 375 125.375 l 1
 375 62.875 l 1025
125 0.375 m 1
 125 62.875 l 1
 437.5 62.875 l 1
 437.5 0.375 l 1
 125 0.375 l 1
EndSplineSet
EndChar

StartChar: T
Encoding: 84 84 53
Width: 562
VWidth: 875
Flags: HW
LayerCount: 2
Back
Fore
SplineSet
62.5 562.875 m 1
 562.5 562.875 l 1
 562.5 625.375 l 1
 62.5 625.375 l 1
 62.5 562.875 l 1025
250 500.375 m 1
 375 500.375 l 1
 375 562.875 l 1
 250 562.875 l 1
 250 500.375 l 1025
250 437.875 m 1
 375 437.875 l 1
 375 500.375 l 1
 250 500.375 l 1
 250 437.875 l 1025
250 375.375 m 1
 375 375.375 l 1
 375 437.875 l 1
 250 437.875 l 1
 250 375.375 l 1025
250 312.875 m 1
 375 312.875 l 1
 375 375.375 l 1
 250 375.375 l 1
 250 312.875 l 1025
250 250.375 m 1
 375 250.375 l 1
 375 312.875 l 1
 250 312.875 l 1
 250 250.375 l 1025
250 187.875 m 1
 375 187.875 l 1
 375 250.375 l 1
 250 250.375 l 1
 250 187.875 l 1025
250 125.375 m 1
 375 125.375 l 1
 375 187.875 l 1
 250 187.875 l 1
 250 125.375 l 1025
250 62.875 m 1
 375 62.875 l 1
 375 125.375 l 1
 250 125.375 l 1
 250 62.875 l 1025
250 0.375 m 1
 250 62.875 l 1
 375 62.875 l 1
 375 0.375 l 1
 250 0.375 l 1
EndSplineSet
EndChar

StartChar: U
Encoding: 85 85 54
Width: 562
VWidth: 875
Flags: HW
LayerCount: 2
Back
Fore
SplineSet
62.5 562.875 m 1
 187.5 562.875 l 1
 187.5 625.375 l 1
 62.5 625.375 l 1
 62.5 562.875 l 1025
375 562.875 m 1
 500 562.875 l 1
 500 625.375 l 1
 375 625.375 l 1
 375 562.875 l 1025
62.5 500.375 m 1
 187.5 500.375 l 1
 187.5 562.875 l 1
 62.5 562.875 l 1
 62.5 500.375 l 1025
375 500.375 m 1
 500 500.375 l 1
 500 562.875 l 1
 375 562.875 l 1
 375 500.375 l 1025
62.5 437.875 m 1
 187.5 437.875 l 1
 187.5 500.375 l 1
 62.5 500.375 l 1
 62.5 437.875 l 1025
375 437.875 m 1
 500 437.875 l 1
 500 500.375 l 1
 375 500.375 l 1
 375 437.875 l 1025
62.5 375.375 m 1
 187.5 375.375 l 1
 187.5 437.875 l 1
 62.5 437.875 l 1
 62.5 375.375 l 1025
375 375.375 m 1
 500 375.375 l 1
 500 437.875 l 1
 375 437.875 l 1
 375 375.375 l 1025
62.5 312.875 m 1
 187.5 312.875 l 1
 187.5 375.375 l 1
 62.5 375.375 l 1
 62.5 312.875 l 1025
375 312.875 m 1
 500 312.875 l 1
 500 375.375 l 1
 375 375.375 l 1
 375 312.875 l 1025
62.5 250.375 m 1
 187.5 250.375 l 1
 187.5 312.875 l 1
 62.5 312.875 l 1
 62.5 250.375 l 1025
375 250.375 m 1
 500 250.375 l 1
 500 312.875 l 1
 375 312.875 l 1
 375 250.375 l 1025
62.5 187.875 m 1
 187.5 187.875 l 1
 187.5 250.375 l 1
 62.5 250.375 l 1
 62.5 187.875 l 1025
375 187.875 m 1
 500 187.875 l 1
 500 250.375 l 1
 375 250.375 l 1
 375 187.875 l 1025
62.5 125.375 m 1
 187.5 125.375 l 1
 187.5 187.875 l 1
 62.5 187.875 l 1
 62.5 125.375 l 1025
375 125.375 m 1
 500 125.375 l 1
 500 187.875 l 1
 375 187.875 l 1
 375 125.375 l 1025
125 62.875 m 1
 250 62.875 l 1
 250 125.375 l 1
 125 125.375 l 1
 125 62.875 l 1025
312.5 62.875 m 1
 437.5 62.875 l 1
 437.5 125.375 l 1
 312.5 125.375 l 1
 312.5 62.875 l 1025
187.5 0.375 m 1
 187.5 62.875 l 1
 375 62.875 l 1
 375 0.375 l 1
 187.5 0.375 l 1
EndSplineSet
EndChar

StartChar: V
Encoding: 86 86 55
Width: 562
VWidth: 875
Flags: HW
LayerCount: 2
Back
Fore
SplineSet
62.5 562.875 m 1
 187.5 562.875 l 1
 187.5 625.375 l 1
 62.5 625.375 l 1
 62.5 562.875 l 1025
437.5 562.875 m 1
 562.5 562.875 l 1
 562.5 625.375 l 1
 437.5 625.375 l 1
 437.5 562.875 l 1025
62.5 500.375 m 1
 187.5 500.375 l 1
 187.5 562.875 l 1
 62.5 562.875 l 1
 62.5 500.375 l 1025
437.5 500.375 m 1
 562.5 500.375 l 1
 562.5 562.875 l 1
 437.5 562.875 l 1
 437.5 500.375 l 1025
62.5 437.875 m 1
 187.5 437.875 l 1
 187.5 500.375 l 1
 62.5 500.375 l 1
 62.5 437.875 l 1025
437.5 437.875 m 1
 562.5 437.875 l 1
 562.5 500.375 l 1
 437.5 500.375 l 1
 437.5 437.875 l 1025
125 375.375 m 1
 250 375.375 l 1
 250 437.875 l 1
 125 437.875 l 1
 125 375.375 l 1025
437.5 375.375 m 1
 500 375.375 l 1
 500 437.875 l 1
 437.5 437.875 l 1
 437.5 375.375 l 1025
125 312.875 m 1
 250 312.875 l 1
 250 375.375 l 1
 125 375.375 l 1
 125 312.875 l 1025
437.5 312.875 m 1
 500 312.875 l 1
 500 375.375 l 1
 437.5 375.375 l 1
 437.5 312.875 l 1025
125 250.375 m 1
 250 250.375 l 1
 250 312.875 l 1
 125 312.875 l 1
 125 250.375 l 1025
375 250.375 m 1
 500 250.375 l 1
 500 312.875 l 1
 375 312.875 l 1
 375 250.375 l 1025
187.5 187.875 m 1
 312.5 187.875 l 1
 312.5 250.375 l 1
 187.5 250.375 l 1
 187.5 187.875 l 1025
375 187.875 m 1
 437.5 187.875 l 1
 437.5 250.375 l 1
 375 250.375 l 1
 375 187.875 l 1025
187.5 125.375 m 1
 312.5 125.375 l 1
 312.5 187.875 l 1
 187.5 187.875 l 1
 187.5 125.375 l 1025
375 125.375 m 1
 437.5 125.375 l 1
 437.5 187.875 l 1
 375 187.875 l 1
 375 125.375 l 1025
250 62.875 m 1
 375 62.875 l 1
 375 125.375 l 1
 250 125.375 l 1
 250 62.875 l 1025
250 0.375 m 1
 250 62.875 l 1
 375 62.875 l 1
 375 0.375 l 1
 250 0.375 l 1
EndSplineSet
EndChar

StartChar: W
Encoding: 87 87 56
Width: 562
VWidth: 875
Flags: HW
LayerCount: 2
Back
Fore
SplineSet
62.5 562.875 m 1
 187.5 562.875 l 1
 187.5 625.375 l 1
 62.5 625.375 l 1
 62.5 562.875 l 1025
437.5 562.875 m 1
 562.5 562.875 l 1
 562.5 625.375 l 1
 437.5 625.375 l 1
 437.5 562.875 l 1025
62.5 500.375 m 1
 187.5 500.375 l 1
 187.5 562.875 l 1
 62.5 562.875 l 1
 62.5 500.375 l 1025
437.5 500.375 m 1
 562.5 500.375 l 1
 562.5 562.875 l 1
 437.5 562.875 l 1
 437.5 500.375 l 1025
62.5 437.875 m 1
 187.5 437.875 l 1
 187.5 500.375 l 1
 62.5 500.375 l 1
 62.5 437.875 l 1025
250 437.875 m 1
 375 437.875 l 1
 375 500.375 l 1
 250 500.375 l 1
 250 437.875 l 1025
437.5 437.875 m 1
 562.5 437.875 l 1
 562.5 500.375 l 1
 437.5 500.375 l 1
 437.5 437.875 l 1025
62.5 375.375 m 1
 187.5 375.375 l 1
 187.5 437.875 l 1
 62.5 437.875 l 1
 62.5 375.375 l 1025
250 375.375 m 1
 375 375.375 l 1
 375 437.875 l 1
 250 437.875 l 1
 250 375.375 l 1025
437.5 375.375 m 1
 562.5 375.375 l 1
 562.5 437.875 l 1
 437.5 437.875 l 1
 437.5 375.375 l 1025
62.5 312.875 m 1
 187.5 312.875 l 1
 187.5 375.375 l 1
 62.5 375.375 l 1
 62.5 312.875 l 1025
250 312.875 m 1
 375 312.875 l 1
 375 375.375 l 1
 250 375.375 l 1
 250 312.875 l 1025
437.5 312.875 m 1
 562.5 312.875 l 1
 562.5 375.375 l 1
 437.5 375.375 l 1
 437.5 312.875 l 1025
62.5 250.375 m 1
 187.5 250.375 l 1
 187.5 312.875 l 1
 62.5 312.875 l 1
 62.5 250.375 l 1025
250 250.375 m 1
 375 250.375 l 1
 375 312.875 l 1
 250 312.875 l 1
 250 250.375 l 1025
437.5 250.375 m 1
 562.5 250.375 l 1
 562.5 312.875 l 1
 437.5 312.875 l 1
 437.5 250.375 l 1025
125 187.875 m 1
 250 187.875 l 1
 250 250.375 l 1
 125 250.375 l 1
 125 187.875 l 1025
375 187.875 m 1
 500 187.875 l 1
 500 250.375 l 1
 375 250.375 l 1
 375 187.875 l 1025
125 125.375 m 1
 250 125.375 l 1
 250 187.875 l 1
 125 187.875 l 1
 125 125.375 l 1025
375 125.375 m 1
 500 125.375 l 1
 500 187.875 l 1
 375 187.875 l 1
 375 125.375 l 1025
125 62.875 m 1
 250 62.875 l 1
 250 125.375 l 1
 125 125.375 l 1
 125 62.875 l 1025
375 62.875 m 1
 500 62.875 l 1
 500 125.375 l 1
 375 125.375 l 1
 375 62.875 l 1025
125 0.375 m 1
 250 0.375 l 1
 250 62.875 l 1
 125 62.875 l 1
 125 0.375 l 1025
375 0.375 m 1
 375 62.875 l 1
 500 62.875 l 1
 500 0.375 l 1
 375 0.375 l 1
EndSplineSet
EndChar

StartChar: X
Encoding: 88 88 57
Width: 562
VWidth: 875
Flags: HW
LayerCount: 2
Back
Fore
SplineSet
62.5 562.875 m 1
 187.5 562.875 l 1
 187.5 625.375 l 1
 62.5 625.375 l 1
 62.5 562.875 l 1025
375 562.875 m 1
 500 562.875 l 1
 500 625.375 l 1
 375 625.375 l 1
 375 562.875 l 1025
62.5 500.375 m 1
 187.5 500.375 l 1
 187.5 562.875 l 1
 62.5 562.875 l 1
 62.5 500.375 l 1025
375 500.375 m 1
 500 500.375 l 1
 500 562.875 l 1
 375 562.875 l 1
 375 500.375 l 1025
62.5 437.875 m 1
 187.5 437.875 l 1
 187.5 500.375 l 1
 62.5 500.375 l 1
 62.5 437.875 l 1025
375 437.875 m 1
 500 437.875 l 1
 500 500.375 l 1
 375 500.375 l 1
 375 437.875 l 1025
125 375.375 m 1
 250 375.375 l 1
 250 437.875 l 1
 125 437.875 l 1
 125 375.375 l 1025
375 375.375 m 1
 437.5 375.375 l 1
 437.5 437.875 l 1
 375 437.875 l 1
 375 375.375 l 1025
187.5 312.875 m 1
 375 312.875 l 1
 375 375.375 l 1
 187.5 375.375 l 1
 187.5 312.875 l 1025
187.5 250.375 m 1
 375 250.375 l 1
 375 312.875 l 1
 187.5 312.875 l 1
 187.5 250.375 l 1025
125 187.875 m 1
 187.5 187.875 l 1
 187.5 250.375 l 1
 125 250.375 l 1
 125 187.875 l 1025
312.5 187.875 m 1
 437.5 187.875 l 1
 437.5 250.375 l 1
 312.5 250.375 l 1
 312.5 187.875 l 1025
62.5 125.375 m 1
 187.5 125.375 l 1
 187.5 187.875 l 1
 62.5 187.875 l 1
 62.5 125.375 l 1025
375 125.375 m 1
 500 125.375 l 1
 500 187.875 l 1
 375 187.875 l 1
 375 125.375 l 1025
62.5 62.875 m 1
 187.5 62.875 l 1
 187.5 125.375 l 1
 62.5 125.375 l 1
 62.5 62.875 l 1025
375 62.875 m 1
 500 62.875 l 1
 500 125.375 l 1
 375 125.375 l 1
 375 62.875 l 1025
62.5 0.375 m 1
 187.5 0.375 l 1
 187.5 62.875 l 1
 62.5 62.875 l 1
 62.5 0.375 l 1025
375 0.375 m 1
 375 62.875 l 1
 500 62.875 l 1
 500 0.375 l 1
 375 0.375 l 1
EndSplineSet
EndChar

StartChar: Y
Encoding: 89 89 58
Width: 562
VWidth: 875
Flags: HW
LayerCount: 2
Back
Fore
SplineSet
62.5 562.875 m 1
 187.5 562.875 l 1
 187.5 625.375 l 1
 62.5 625.375 l 1
 62.5 562.875 l 1025
437.5 562.875 m 1
 562.5 562.875 l 1
 562.5 625.375 l 1
 437.5 625.375 l 1
 437.5 562.875 l 1025
62.5 500.375 m 1
 187.5 500.375 l 1
 187.5 562.875 l 1
 62.5 562.875 l 1
 62.5 500.375 l 1025
437.5 500.375 m 1
 562.5 500.375 l 1
 562.5 562.875 l 1
 437.5 562.875 l 1
 437.5 500.375 l 1025
125 437.875 m 1
 250 437.875 l 1
 250 500.375 l 1
 125 500.375 l 1
 125 437.875 l 1025
437.5 437.875 m 1
 500 437.875 l 1
 500 500.375 l 1
 437.5 500.375 l 1
 437.5 437.875 l 1025
125 375.375 m 1
 250 375.375 l 1
 250 437.875 l 1
 125 437.875 l 1
 125 375.375 l 1025
375 375.375 m 1
 500 375.375 l 1
 500 437.875 l 1
 375 437.875 l 1
 375 375.375 l 1025
187.5 312.875 m 1
 312.5 312.875 l 1
 312.5 375.375 l 1
 187.5 375.375 l 1
 187.5 312.875 l 1025
375 312.875 m 1
 437.5 312.875 l 1
 437.5 375.375 l 1
 375 375.375 l 1
 375 312.875 l 1025
250 250.375 m 1
 375 250.375 l 1
 375 312.875 l 1
 250 312.875 l 1
 250 250.375 l 1025
250 187.875 m 1
 375 187.875 l 1
 375 250.375 l 1
 250 250.375 l 1
 250 187.875 l 1025
250 125.375 m 1
 375 125.375 l 1
 375 187.875 l 1
 250 187.875 l 1
 250 125.375 l 1025
250 62.875 m 1
 375 62.875 l 1
 375 125.375 l 1
 250 125.375 l 1
 250 62.875 l 1025
250 0.375 m 1
 250 62.875 l 1
 375 62.875 l 1
 375 0.375 l 1
 250 0.375 l 1
EndSplineSet
EndChar

StartChar: Z
Encoding: 90 90 59
Width: 562
VWidth: 875
Flags: HW
LayerCount: 2
Back
Fore
SplineSet
62.5 562.875 m 1
 500 562.875 l 1
 500 625.375 l 1
 62.5 625.375 l 1
 62.5 562.875 l 1025
375 500.375 m 1
 500 500.375 l 1
 500 562.875 l 1
 375 562.875 l 1
 375 500.375 l 1025
312.5 437.875 m 1
 437.5 437.875 l 1
 437.5 500.375 l 1
 312.5 500.375 l 1
 312.5 437.875 l 1025
250 375.375 m 1
 375 375.375 l 1
 375 437.875 l 1
 250 437.875 l 1
 250 375.375 l 1025
250 312.875 m 1
 375 312.875 l 1
 375 375.375 l 1
 250 375.375 l 1
 250 312.875 l 1025
187.5 250.375 m 1
 312.5 250.375 l 1
 312.5 312.875 l 1
 187.5 312.875 l 1
 187.5 250.375 l 1025
125 187.875 m 1
 250 187.875 l 1
 250 250.375 l 1
 125 250.375 l 1
 125 187.875 l 1025
125 125.375 m 1
 250 125.375 l 1
 250 187.875 l 1
 125 187.875 l 1
 125 125.375 l 1025
62.5 62.875 m 1
 187.5 62.875 l 1
 187.5 125.375 l 1
 62.5 125.375 l 1
 62.5 62.875 l 1025
62.5 0.375 m 1
 62.5 62.875 l 1
 500 62.875 l 1
 500 0.375 l 1
 62.5 0.375 l 1
EndSplineSet
EndChar

StartChar: bracketleft
Encoding: 91 91 60
Width: 562
VWidth: 875
Flags: HW
LayerCount: 2
Back
Fore
SplineSet
125 625.375 m 1
 437.5 625.375 l 1
 437.5 687.875 l 1
 125 687.875 l 1
 125 625.375 l 1025
125 562.875 m 1
 250 562.875 l 1
 250 625.375 l 1
 125 625.375 l 1
 125 562.875 l 1025
125 500.375 m 1
 250 500.375 l 1
 250 562.875 l 1
 125 562.875 l 1
 125 500.375 l 1025
125 437.875 m 1
 250 437.875 l 1
 250 500.375 l 1
 125 500.375 l 1
 125 437.875 l 1025
125 375.375 m 1
 250 375.375 l 1
 250 437.875 l 1
 125 437.875 l 1
 125 375.375 l 1025
125 312.875 m 1
 250 312.875 l 1
 250 375.375 l 1
 125 375.375 l 1
 125 312.875 l 1025
125 250.375 m 1
 250 250.375 l 1
 250 312.875 l 1
 125 312.875 l 1
 125 250.375 l 1025
125 187.875 m 1
 250 187.875 l 1
 250 250.375 l 1
 125 250.375 l 1
 125 187.875 l 1025
125 125.375 m 1
 250 125.375 l 1
 250 187.875 l 1
 125 187.875 l 1
 125 125.375 l 1025
125 62.875 m 1
 250 62.875 l 1
 250 125.375 l 1
 125 125.375 l 1
 125 62.875 l 1025
125 0.375 m 1
 250 0.375 l 1
 250 62.875 l 1
 125 62.875 l 1
 125 0.375 l 1025
125 -62.125 m 1
 125 0.375 l 1
 437.5 0.375 l 1
 437.5 -62.125 l 1
 125 -62.125 l 1
EndSplineSet
EndChar

StartChar: backslash
Encoding: 92 92 61
Width: 562
VWidth: 875
Flags: HW
LayerCount: 2
Back
Fore
SplineSet
62.5 625.375 m 1
 187.5 625.375 l 1
 187.5 687.875 l 1
 62.5 687.875 l 1
 62.5 625.375 l 1025
62.5 562.875 m 1
 187.5 562.875 l 1
 187.5 625.375 l 1
 62.5 625.375 l 1
 62.5 562.875 l 1025
125 500.375 m 1
 250 500.375 l 1
 250 562.875 l 1
 125 562.875 l 1
 125 500.375 l 1025
125 437.875 m 1
 250 437.875 l 1
 250 500.375 l 1
 125 500.375 l 1
 125 437.875 l 1025
187.5 375.375 m 1
 312.5 375.375 l 1
 312.5 437.875 l 1
 187.5 437.875 l 1
 187.5 375.375 l 1025
187.5 312.875 m 1
 312.5 312.875 l 1
 312.5 375.375 l 1
 187.5 375.375 l 1
 187.5 312.875 l 1025
250 250.375 m 1
 375 250.375 l 1
 375 312.875 l 1
 250 312.875 l 1
 250 250.375 l 1025
250 187.875 m 1
 375 187.875 l 1
 375 250.375 l 1
 250 250.375 l 1
 250 187.875 l 1025
312.5 125.375 m 1
 437.5 125.375 l 1
 437.5 187.875 l 1
 312.5 187.875 l 1
 312.5 125.375 l 1025
312.5 62.875 m 1
 437.5 62.875 l 1
 437.5 125.375 l 1
 312.5 125.375 l 1
 312.5 62.875 l 1025
375 0.375 m 1
 500 0.375 l 1
 500 62.875 l 1
 375 62.875 l 1
 375 0.375 l 1025
375 -62.125 m 1
 375 0.375 l 1
 500 0.375 l 1
 500 -62.125 l 1
 375 -62.125 l 1
EndSplineSet
EndChar

StartChar: bracketright
Encoding: 93 93 62
Width: 562
VWidth: 875
Flags: HW
LayerCount: 2
Back
Fore
SplineSet
125 625.375 m 1
 437.5 625.375 l 1
 437.5 687.875 l 1
 125 687.875 l 1
 125 625.375 l 1025
312.5 562.875 m 1
 437.5 562.875 l 1
 437.5 625.375 l 1
 312.5 625.375 l 1
 312.5 562.875 l 1025
312.5 500.375 m 1
 437.5 500.375 l 1
 437.5 562.875 l 1
 312.5 562.875 l 1
 312.5 500.375 l 1025
312.5 437.875 m 1
 437.5 437.875 l 1
 437.5 500.375 l 1
 312.5 500.375 l 1
 312.5 437.875 l 1025
312.5 375.375 m 1
 437.5 375.375 l 1
 437.5 437.875 l 1
 312.5 437.875 l 1
 312.5 375.375 l 1025
312.5 312.875 m 1
 437.5 312.875 l 1
 437.5 375.375 l 1
 312.5 375.375 l 1
 312.5 312.875 l 1025
312.5 250.375 m 1
 437.5 250.375 l 1
 437.5 312.875 l 1
 312.5 312.875 l 1
 312.5 250.375 l 1025
312.5 187.875 m 1
 437.5 187.875 l 1
 437.5 250.375 l 1
 312.5 250.375 l 1
 312.5 187.875 l 1025
312.5 125.375 m 1
 437.5 125.375 l 1
 437.5 187.875 l 1
 312.5 187.875 l 1
 312.5 125.375 l 1025
312.5 62.875 m 1
 437.5 62.875 l 1
 437.5 125.375 l 1
 312.5 125.375 l 1
 312.5 62.875 l 1025
312.5 0.375 m 1
 437.5 0.375 l 1
 437.5 62.875 l 1
 312.5 62.875 l 1
 312.5 0.375 l 1025
125 -62.125 m 1
 125 0.375 l 1
 437.5 0.375 l 1
 437.5 -62.125 l 1
 125 -62.125 l 1
EndSplineSet
EndChar

StartChar: asciicircum
Encoding: 94 94 63
Width: 562
VWidth: 875
Flags: HW
LayerCount: 2
Back
Fore
SplineSet
250 562.875 m 1
 375 562.875 l 1
 375 625.375 l 1
 250 625.375 l 1
 250 562.875 l 1025
250 500.375 m 1
 375 500.375 l 1
 375 562.875 l 1
 250 562.875 l 1
 250 500.375 l 1025
187.5 437.875 m 1
 437.5 437.875 l 1
 437.5 500.375 l 1
 187.5 500.375 l 1
 187.5 437.875 l 1025
187.5 375.375 m 1
 250 375.375 l 1
 250 437.875 l 1
 187.5 437.875 l 1
 187.5 375.375 l 1025
375 375.375 m 1
 437.5 375.375 l 1
 437.5 437.875 l 1
 375 437.875 l 1
 375 375.375 l 1025
125 312.875 m 1
 250 312.875 l 1
 250 375.375 l 1
 125 375.375 l 1
 125 312.875 l 1025
375 312.875 m 1
 500 312.875 l 1
 500 375.375 l 1
 375 375.375 l 1
 375 312.875 l 1025
125 250.375 m 1
 187.5 250.375 l 1
 187.5 312.875 l 1
 125 312.875 l 1
 125 250.375 l 1025
437.5 250.375 m 1
 500 250.375 l 1
 500 312.875 l 1
 437.5 312.875 l 1
 437.5 250.375 l 1025
125 187.875 m 1
 187.5 187.875 l 1
 187.5 250.375 l 1
 125 250.375 l 1
 125 187.875 l 1025
437.5 187.875 m 1
 437.5 250.375 l 1
 500 250.375 l 1
 500 187.875 l 1
 437.5 187.875 l 1
EndSplineSet
EndChar

StartChar: underscore
Encoding: 95 95 64
Width: 562
VWidth: 875
Flags: HW
LayerCount: 2
Back
Fore
SplineSet
0 -62.125 m 1
 0 0.375 l 1
 562.5 0.375 l 1
 562.5 -62.125 l 1
 0 -62.125 l 1
EndSplineSet
EndChar

StartChar: grave
Encoding: 96 96 65
Width: 562
VWidth: 875
Flags: HW
LayerCount: 2
Back
Fore
SplineSet
125 625.375 m 1
 250 625.375 l 1
 250 687.875 l 1
 125 687.875 l 1
 125 625.375 l 1025
250 562.875 m 1
 250 625.375 l 1
 375 625.375 l 1
 375 562.875 l 1
 250 562.875 l 1
EndSplineSet
EndChar

StartChar: a
Encoding: 97 97 66
Width: 562
VWidth: 875
Flags: HW
LayerCount: 2
Back
Fore
SplineSet
125 437.875 m 1
 437.5 437.875 l 1
 437.5 500.375 l 1
 125 500.375 l 1
 125 437.875 l 1025
375 375.375 m 1
 500 375.375 l 1
 500 437.875 l 1
 375 437.875 l 1
 375 375.375 l 1025
375 312.875 m 1
 500 312.875 l 1
 500 375.375 l 1
 375 375.375 l 1
 375 312.875 l 1025
125 250.375 m 1
 500 250.375 l 1
 500 312.875 l 1
 125 312.875 l 1
 125 250.375 l 1025
62.5 187.875 m 1
 187.5 187.875 l 1
 187.5 250.375 l 1
 62.5 250.375 l 1
 62.5 187.875 l 1025
375 187.875 m 1
 500 187.875 l 1
 500 250.375 l 1
 375 250.375 l 1
 375 187.875 l 1025
62.5 125.375 m 1
 187.5 125.375 l 1
 187.5 187.875 l 1
 62.5 187.875 l 1
 62.5 125.375 l 1025
375 125.375 m 1
 500 125.375 l 1
 500 187.875 l 1
 375 187.875 l 1
 375 125.375 l 1025
62.5 62.875 m 1
 187.5 62.875 l 1
 187.5 125.375 l 1
 62.5 125.375 l 1
 62.5 62.875 l 1025
312.5 62.875 m 1
 500 62.875 l 1
 500 125.375 l 1
 312.5 125.375 l 1
 312.5 62.875 l 1025
125 0.375 m 1
 312.5 0.375 l 1
 312.5 62.875 l 1
 125 62.875 l 1
 125 0.375 l 1025
375 0.375 m 1
 375 62.875 l 1
 562.5 62.875 l 1
 562.5 0.375 l 1
 375 0.375 l 1
EndSplineSet
EndChar

StartChar: b
Encoding: 98 98 67
Width: 562
VWidth: 875
Flags: HW
LayerCount: 2
Back
Fore
SplineSet
62.5 625.375 m 1
 187.5 625.375 l 1
 187.5 687.875 l 1
 62.5 687.875 l 1
 62.5 625.375 l 1025
62.5 562.875 m 1
 187.5 562.875 l 1
 187.5 625.375 l 1
 62.5 625.375 l 1
 62.5 562.875 l 1025
62.5 500.375 m 1
 187.5 500.375 l 1
 187.5 562.875 l 1
 62.5 562.875 l 1
 62.5 500.375 l 1025
62.5 437.875 m 1
 187.5 437.875 l 1
 187.5 500.375 l 1
 62.5 500.375 l 1
 62.5 437.875 l 1025
250 437.875 m 1
 375 437.875 l 1
 375 500.375 l 1
 250 500.375 l 1
 250 437.875 l 1025
62.5 375.375 m 1
 250 375.375 l 1
 250 437.875 l 1
 62.5 437.875 l 1
 62.5 375.375 l 1025
312.5 375.375 m 1
 437.5 375.375 l 1
 437.5 437.875 l 1
 312.5 437.875 l 1
 312.5 375.375 l 1025
62.5 312.875 m 1
 187.5 312.875 l 1
 187.5 375.375 l 1
 62.5 375.375 l 1
 62.5 312.875 l 1025
375 312.875 m 1
 500 312.875 l 1
 500 375.375 l 1
 375 375.375 l 1
 375 312.875 l 1025
62.5 250.375 m 1
 187.5 250.375 l 1
 187.5 312.875 l 1
 62.5 312.875 l 1
 62.5 250.375 l 1025
375 250.375 m 1
 500 250.375 l 1
 500 312.875 l 1
 375 312.875 l 1
 375 250.375 l 1025
62.5 187.875 m 1
 187.5 187.875 l 1
 187.5 250.375 l 1
 62.5 250.375 l 1
 62.5 187.875 l 1025
375 187.875 m 1
 500 187.875 l 1
 500 250.375 l 1
 375 250.375 l 1
 375 187.875 l 1025
62.5 125.375 m 1
 187.5 125.375 l 1
 187.5 187.875 l 1
 62.5 187.875 l 1
 62.5 125.375 l 1025
375 125.375 m 1
 500 125.375 l 1
 500 187.875 l 1
 375 187.875 l 1
 375 125.375 l 1025
62.5 62.875 m 1
 187.5 62.875 l 1
 187.5 125.375 l 1
 62.5 125.375 l 1
 62.5 62.875 l 1025
312.5 62.875 m 1
 437.5 62.875 l 1
 437.5 125.375 l 1
 312.5 125.375 l 1
 312.5 62.875 l 1025
62.5 0.375 m 1
 62.5 62.875 l 1
 375 62.875 l 1
 375 0.375 l 1
 62.5 0.375 l 1
EndSplineSet
EndChar

StartChar: c
Encoding: 99 99 68
Width: 562
VWidth: 875
Flags: HW
LayerCount: 2
Back
Fore
SplineSet
187.5 437.875 m 1
 437.5 437.875 l 1
 437.5 500.375 l 1
 187.5 500.375 l 1
 187.5 437.875 l 1025
125 375.375 m 1
 250 375.375 l 1
 250 437.875 l 1
 125 437.875 l 1
 125 375.375 l 1025
375 375.375 m 1
 500 375.375 l 1
 500 437.875 l 1
 375 437.875 l 1
 375 375.375 l 1025
62.5 312.875 m 1
 187.5 312.875 l 1
 187.5 375.375 l 1
 62.5 375.375 l 1
 62.5 312.875 l 1025
62.5 250.375 m 1
 187.5 250.375 l 1
 187.5 312.875 l 1
 62.5 312.875 l 1
 62.5 250.375 l 1025
62.5 187.875 m 1
 187.5 187.875 l 1
 187.5 250.375 l 1
 62.5 250.375 l 1
 62.5 187.875 l 1025
62.5 125.375 m 1
 187.5 125.375 l 1
 187.5 187.875 l 1
 62.5 187.875 l 1
 62.5 125.375 l 1025
125 62.875 m 1
 250 62.875 l 1
 250 125.375 l 1
 125 125.375 l 1
 125 62.875 l 1025
437.5 62.875 m 1
 500 62.875 l 1
 500 125.375 l 1
 437.5 125.375 l 1
 437.5 62.875 l 1025
187.5 0.375 m 1
 187.5 62.875 l 1
 437.5 62.875 l 1
 437.5 0.375 l 1
 187.5 0.375 l 1
EndSplineSet
EndChar

StartChar: d
Encoding: 100 100 69
Width: 562
VWidth: 875
Flags: HW
LayerCount: 2
Back
Fore
SplineSet
375 625.375 m 1
 500 625.375 l 1
 500 687.875 l 1
 375 687.875 l 1
 375 625.375 l 1025
375 562.875 m 1
 500 562.875 l 1
 500 625.375 l 1
 375 625.375 l 1
 375 562.875 l 1025
375 500.375 m 1
 500 500.375 l 1
 500 562.875 l 1
 375 562.875 l 1
 375 500.375 l 1025
187.5 437.875 m 1
 500 437.875 l 1
 500 500.375 l 1
 187.5 500.375 l 1
 187.5 437.875 l 1025
125 375.375 m 1
 250 375.375 l 1
 250 437.875 l 1
 125 437.875 l 1
 125 375.375 l 1025
375 375.375 m 1
 500 375.375 l 1
 500 437.875 l 1
 375 437.875 l 1
 375 375.375 l 1025
62.5 312.875 m 1
 187.5 312.875 l 1
 187.5 375.375 l 1
 62.5 375.375 l 1
 62.5 312.875 l 1025
375 312.875 m 1
 500 312.875 l 1
 500 375.375 l 1
 375 375.375 l 1
 375 312.875 l 1025
62.5 250.375 m 1
 187.5 250.375 l 1
 187.5 312.875 l 1
 62.5 312.875 l 1
 62.5 250.375 l 1025
375 250.375 m 1
 500 250.375 l 1
 500 312.875 l 1
 375 312.875 l 1
 375 250.375 l 1025
62.5 187.875 m 1
 187.5 187.875 l 1
 187.5 250.375 l 1
 62.5 250.375 l 1
 62.5 187.875 l 1025
375 187.875 m 1
 500 187.875 l 1
 500 250.375 l 1
 375 250.375 l 1
 375 187.875 l 1025
62.5 125.375 m 1
 187.5 125.375 l 1
 187.5 187.875 l 1
 62.5 187.875 l 1
 62.5 125.375 l 1025
375 125.375 m 1
 500 125.375 l 1
 500 187.875 l 1
 375 187.875 l 1
 375 125.375 l 1025
125 62.875 m 1
 250 62.875 l 1
 250 125.375 l 1
 125 125.375 l 1
 125 62.875 l 1025
312.5 62.875 m 1
 500 62.875 l 1
 500 125.375 l 1
 312.5 125.375 l 1
 312.5 62.875 l 1025
187.5 0.375 m 1
 312.5 0.375 l 1
 312.5 62.875 l 1
 187.5 62.875 l 1
 187.5 0.375 l 1025
375 0.375 m 1
 375 62.875 l 1
 500 62.875 l 1
 500 0.375 l 1
 375 0.375 l 1
EndSplineSet
EndChar

StartChar: e
Encoding: 101 101 70
Width: 562
VWidth: 875
Flags: HW
LayerCount: 2
Back
Fore
SplineSet
187.5 437.875 m 1
 437.5 437.875 l 1
 437.5 500.375 l 1
 187.5 500.375 l 1
 187.5 437.875 l 1025
125 375.375 m 1
 250 375.375 l 1
 250 437.875 l 1
 125 437.875 l 1
 125 375.375 l 1025
375 375.375 m 1
 500 375.375 l 1
 500 437.875 l 1
 375 437.875 l 1
 375 375.375 l 1025
62.5 312.875 m 1
 187.5 312.875 l 1
 187.5 375.375 l 1
 62.5 375.375 l 1
 62.5 312.875 l 1025
375 312.875 m 1
 500 312.875 l 1
 500 375.375 l 1
 375 375.375 l 1
 375 312.875 l 1025
62.5 250.375 m 1
 500 250.375 l 1
 500 312.875 l 1
 62.5 312.875 l 1
 62.5 250.375 l 1025
62.5 187.875 m 1
 187.5 187.875 l 1
 187.5 250.375 l 1
 62.5 250.375 l 1
 62.5 187.875 l 1025
62.5 125.375 m 1
 187.5 125.375 l 1
 187.5 187.875 l 1
 62.5 187.875 l 1
 62.5 125.375 l 1025
125 62.875 m 1
 250 62.875 l 1
 250 125.375 l 1
 125 125.375 l 1
 125 62.875 l 1025
437.5 62.875 m 1
 500 62.875 l 1
 500 125.375 l 1
 437.5 125.375 l 1
 437.5 62.875 l 1025
187.5 0.375 m 1
 187.5 62.875 l 1
 437.5 62.875 l 1
 437.5 0.375 l 1
 187.5 0.375 l 1
EndSplineSet
EndChar

StartChar: f
Encoding: 102 102 71
Width: 562
VWidth: 875
Flags: HW
LayerCount: 2
Back
Fore
SplineSet
250 625.375 m 1
 500 625.375 l 1
 500 687.875 l 1
 250 687.875 l 1
 250 625.375 l 1025
187.5 562.875 m 1
 312.5 562.875 l 1
 312.5 625.375 l 1
 187.5 625.375 l 1
 187.5 562.875 l 1025
187.5 500.375 m 1
 312.5 500.375 l 1
 312.5 562.875 l 1
 187.5 562.875 l 1
 187.5 500.375 l 1025
187.5 437.875 m 1
 312.5 437.875 l 1
 312.5 500.375 l 1
 187.5 500.375 l 1
 187.5 437.875 l 1025
62.5 375.375 m 1
 500 375.375 l 1
 500 437.875 l 1
 62.5 437.875 l 1
 62.5 375.375 l 1025
187.5 312.875 m 1
 312.5 312.875 l 1
 312.5 375.375 l 1
 187.5 375.375 l 1
 187.5 312.875 l 1025
187.5 250.375 m 1
 312.5 250.375 l 1
 312.5 312.875 l 1
 187.5 312.875 l 1
 187.5 250.375 l 1025
187.5 187.875 m 1
 312.5 187.875 l 1
 312.5 250.375 l 1
 187.5 250.375 l 1
 187.5 187.875 l 1025
187.5 125.375 m 1
 312.5 125.375 l 1
 312.5 187.875 l 1
 187.5 187.875 l 1
 187.5 125.375 l 1025
187.5 62.875 m 1
 312.5 62.875 l 1
 312.5 125.375 l 1
 187.5 125.375 l 1
 187.5 62.875 l 1025
187.5 0.375 m 1
 187.5 62.875 l 1
 312.5 62.875 l 1
 312.5 0.375 l 1
 187.5 0.375 l 1
EndSplineSet
EndChar

StartChar: g
Encoding: 103 103 72
Width: 562
VWidth: 875
Flags: HW
LayerCount: 2
Back
Fore
SplineSet
187.5 437.875 m 1
 500 437.875 l 1
 500 500.375 l 1
 187.5 500.375 l 1
 187.5 437.875 l 1025
125 375.375 m 1
 250 375.375 l 1
 250 437.875 l 1
 125 437.875 l 1
 125 375.375 l 1025
375 375.375 m 1
 500 375.375 l 1
 500 437.875 l 1
 375 437.875 l 1
 375 375.375 l 1025
62.5 312.875 m 1
 187.5 312.875 l 1
 187.5 375.375 l 1
 62.5 375.375 l 1
 62.5 312.875 l 1025
375 312.875 m 1
 500 312.875 l 1
 500 375.375 l 1
 375 375.375 l 1
 375 312.875 l 1025
62.5 250.375 m 1
 187.5 250.375 l 1
 187.5 312.875 l 1
 62.5 312.875 l 1
 62.5 250.375 l 1025
375 250.375 m 1
 500 250.375 l 1
 500 312.875 l 1
 375 312.875 l 1
 375 250.375 l 1025
62.5 187.875 m 1
 187.5 187.875 l 1
 187.5 250.375 l 1
 62.5 250.375 l 1
 62.5 187.875 l 1025
375 187.875 m 1
 500 187.875 l 1
 500 250.375 l 1
 375 250.375 l 1
 375 187.875 l 1025
125 125.375 m 1
 250 125.375 l 1
 250 187.875 l 1
 125 187.875 l 1
 125 125.375 l 1025
312.5 125.375 m 1
 500 125.375 l 1
 500 187.875 l 1
 312.5 187.875 l 1
 312.5 125.375 l 1025
187.5 62.875 m 1
 312.5 62.875 l 1
 312.5 125.375 l 1
 187.5 125.375 l 1
 187.5 62.875 l 1025
375 62.875 m 1
 500 62.875 l 1
 500 125.375 l 1
 375 125.375 l 1
 375 62.875 l 1025
375 0.375 m 1
 500 0.375 l 1
 500 62.875 l 1
 375 62.875 l 1
 375 0.375 l 1025
62.5 -62.125 m 1
 187.5 -62.125 l 1
 187.5 0.375 l 1
 62.5 0.375 l 1
 62.5 -62.125 l 1025
312.5 -62.125 m 1
 437.5 -62.125 l 1
 437.5 0.375 l 1
 312.5 0.375 l 1
 312.5 -62.125 l 1025
125 -124.625 m 1
 125 -62.125 l 1
 375 -62.125 l 1
 375 -124.625 l 1
 125 -124.625 l 1
EndSplineSet
EndChar

StartChar: h
Encoding: 104 104 73
Width: 562
VWidth: 875
Flags: HW
LayerCount: 2
Back
Fore
SplineSet
62.5 625.375 m 1
 187.5 625.375 l 1
 187.5 687.875 l 1
 62.5 687.875 l 1
 62.5 625.375 l 1025
62.5 562.875 m 1
 187.5 562.875 l 1
 187.5 625.375 l 1
 62.5 625.375 l 1
 62.5 562.875 l 1025
62.5 500.375 m 1
 187.5 500.375 l 1
 187.5 562.875 l 1
 62.5 562.875 l 1
 62.5 500.375 l 1025
62.5 437.875 m 1
 187.5 437.875 l 1
 187.5 500.375 l 1
 62.5 500.375 l 1
 62.5 437.875 l 1025
250 437.875 m 1
 437.5 437.875 l 1
 437.5 500.375 l 1
 250 500.375 l 1
 250 437.875 l 1025
62.5 375.375 m 1
 250 375.375 l 1
 250 437.875 l 1
 62.5 437.875 l 1
 62.5 375.375 l 1025
312.5 375.375 m 1
 500 375.375 l 1
 500 437.875 l 1
 312.5 437.875 l 1
 312.5 375.375 l 1025
62.5 312.875 m 1
 187.5 312.875 l 1
 187.5 375.375 l 1
 62.5 375.375 l 1
 62.5 312.875 l 1025
375 312.875 m 1
 500 312.875 l 1
 500 375.375 l 1
 375 375.375 l 1
 375 312.875 l 1025
62.5 250.375 m 1
 187.5 250.375 l 1
 187.5 312.875 l 1
 62.5 312.875 l 1
 62.5 250.375 l 1025
375 250.375 m 1
 500 250.375 l 1
 500 312.875 l 1
 375 312.875 l 1
 375 250.375 l 1025
62.5 187.875 m 1
 187.5 187.875 l 1
 187.5 250.375 l 1
 62.5 250.375 l 1
 62.5 187.875 l 1025
375 187.875 m 1
 500 187.875 l 1
 500 250.375 l 1
 375 250.375 l 1
 375 187.875 l 1025
62.5 125.375 m 1
 187.5 125.375 l 1
 187.5 187.875 l 1
 62.5 187.875 l 1
 62.5 125.375 l 1025
375 125.375 m 1
 500 125.375 l 1
 500 187.875 l 1
 375 187.875 l 1
 375 125.375 l 1025
62.5 62.875 m 1
 187.5 62.875 l 1
 187.5 125.375 l 1
 62.5 125.375 l 1
 62.5 62.875 l 1025
375 62.875 m 1
 500 62.875 l 1
 500 125.375 l 1
 375 125.375 l 1
 375 62.875 l 1025
62.5 0.375 m 1
 187.5 0.375 l 1
 187.5 62.875 l 1
 62.5 62.875 l 1
 62.5 0.375 l 1025
375 0.375 m 1
 375 62.875 l 1
 500 62.875 l 1
 500 0.375 l 1
 375 0.375 l 1
EndSplineSet
EndChar

StartChar: i
Encoding: 105 105 74
Width: 562
VWidth: 875
Flags: HW
LayerCount: 2
Back
Fore
SplineSet
250 625.375 m 1
 375 625.375 l 1
 375 687.875 l 1
 250 687.875 l 1
 250 625.375 l 1025
250 562.875 m 1
 375 562.875 l 1
 375 625.375 l 1
 250 625.375 l 1
 250 562.875 l 1025
62.5 437.875 m 1
 375 437.875 l 1
 375 500.375 l 1
 62.5 500.375 l 1
 62.5 437.875 l 1025
250 375.375 m 1
 375 375.375 l 1
 375 437.875 l 1
 250 437.875 l 1
 250 375.375 l 1025
250 312.875 m 1
 375 312.875 l 1
 375 375.375 l 1
 250 375.375 l 1
 250 312.875 l 1025
250 250.375 m 1
 375 250.375 l 1
 375 312.875 l 1
 250 312.875 l 1
 250 250.375 l 1025
250 187.875 m 1
 375 187.875 l 1
 375 250.375 l 1
 250 250.375 l 1
 250 187.875 l 1025
250 125.375 m 1
 375 125.375 l 1
 375 187.875 l 1
 250 187.875 l 1
 250 125.375 l 1025
250 62.875 m 1
 375 62.875 l 1
 375 125.375 l 1
 250 125.375 l 1
 250 62.875 l 1025
250 0.375 m 1
 250 62.875 l 1
 375 62.875 l 1
 375 0.375 l 1
 250 0.375 l 1
EndSplineSet
EndChar

StartChar: j
Encoding: 106 106 75
Width: 562
VWidth: 875
Flags: HW
LayerCount: 2
Back
Fore
SplineSet
312.5 625.375 m 1
 437.5 625.375 l 1
 437.5 687.875 l 1
 312.5 687.875 l 1
 312.5 625.375 l 1025
312.5 562.875 m 1
 437.5 562.875 l 1
 437.5 625.375 l 1
 312.5 625.375 l 1
 312.5 562.875 l 1025
125 437.875 m 1
 437.5 437.875 l 1
 437.5 500.375 l 1
 125 500.375 l 1
 125 437.875 l 1025
312.5 375.375 m 1
 437.5 375.375 l 1
 437.5 437.875 l 1
 312.5 437.875 l 1
 312.5 375.375 l 1025
312.5 312.875 m 1
 437.5 312.875 l 1
 437.5 375.375 l 1
 312.5 375.375 l 1
 312.5 312.875 l 1025
312.5 250.375 m 1
 437.5 250.375 l 1
 437.5 312.875 l 1
 312.5 312.875 l 1
 312.5 250.375 l 1025
312.5 187.875 m 1
 437.5 187.875 l 1
 437.5 250.375 l 1
 312.5 250.375 l 1
 312.5 187.875 l 1025
312.5 125.375 m 1
 437.5 125.375 l 1
 437.5 187.875 l 1
 312.5 187.875 l 1
 312.5 125.375 l 1025
312.5 62.875 m 1
 437.5 62.875 l 1
 437.5 125.375 l 1
 312.5 125.375 l 1
 312.5 62.875 l 1025
312.5 0.375 m 1
 437.5 0.375 l 1
 437.5 62.875 l 1
 312.5 62.875 l 1
 312.5 0.375 l 1025
312.5 -62.125 m 1
 437.5 -62.125 l 1
 437.5 0.375 l 1
 312.5 0.375 l 1
 312.5 -62.125 l 1025
62.5 -124.625 m 1
 62.5 -62.125 l 1
 375 -62.125 l 1
 375 -124.625 l 1
 62.5 -124.625 l 1
EndSplineSet
EndChar

StartChar: k
Encoding: 107 107 76
Width: 562
VWidth: 875
Flags: HW
LayerCount: 2
Back
Fore
SplineSet
62.5 625.375 m 1
 187.5 625.375 l 1
 187.5 687.875 l 1
 62.5 687.875 l 1
 62.5 625.375 l 1025
62.5 562.875 m 1
 187.5 562.875 l 1
 187.5 625.375 l 1
 62.5 625.375 l 1
 62.5 562.875 l 1025
62.5 500.375 m 1
 187.5 500.375 l 1
 187.5 562.875 l 1
 62.5 562.875 l 1
 62.5 500.375 l 1025
62.5 437.875 m 1
 187.5 437.875 l 1
 187.5 500.375 l 1
 62.5 500.375 l 1
 62.5 437.875 l 1025
375 437.875 m 1
 500 437.875 l 1
 500 500.375 l 1
 375 500.375 l 1
 375 437.875 l 1025
62.5 375.375 m 1
 187.5 375.375 l 1
 187.5 437.875 l 1
 62.5 437.875 l 1
 62.5 375.375 l 1025
375 375.375 m 1
 437.5 375.375 l 1
 437.5 437.875 l 1
 375 437.875 l 1
 375 375.375 l 1025
62.5 312.875 m 1
 187.5 312.875 l 1
 187.5 375.375 l 1
 62.5 375.375 l 1
 62.5 312.875 l 1025
312.5 312.875 m 1
 375 312.875 l 1
 375 375.375 l 1
 312.5 375.375 l 1
 312.5 312.875 l 1025
62.5 250.375 m 1
 312.5 250.375 l 1
 312.5 312.875 l 1
 62.5 312.875 l 1
 62.5 250.375 l 1025
62.5 187.875 m 1
 187.5 187.875 l 1
 187.5 250.375 l 1
 62.5 250.375 l 1
 62.5 187.875 l 1025
250 187.875 m 1
 375 187.875 l 1
 375 250.375 l 1
 250 250.375 l 1
 250 187.875 l 1025
62.5 125.375 m 1
 187.5 125.375 l 1
 187.5 187.875 l 1
 62.5 187.875 l 1
 62.5 125.375 l 1025
312.5 125.375 m 1
 437.5 125.375 l 1
 437.5 187.875 l 1
 312.5 187.875 l 1
 312.5 125.375 l 1025
62.5 62.875 m 1
 187.5 62.875 l 1
 187.5 125.375 l 1
 62.5 125.375 l 1
 62.5 62.875 l 1025
375 62.875 m 1
 500 62.875 l 1
 500 125.375 l 1
 375 125.375 l 1
 375 62.875 l 1025
62.5 0.375 m 1
 187.5 0.375 l 1
 187.5 62.875 l 1
 62.5 62.875 l 1
 62.5 0.375 l 1025
375 0.375 m 1
 375 62.875 l 1
 562.5 62.875 l 1
 562.5 0.375 l 1
 375 0.375 l 1
EndSplineSet
EndChar

StartChar: l
Encoding: 108 108 77
Width: 562
VWidth: 875
Flags: HW
LayerCount: 2
Back
Fore
SplineSet
62.5 625.375 m 1
 375 625.375 l 1
 375 687.875 l 1
 62.5 687.875 l 1
 62.5 625.375 l 1025
250 562.875 m 1
 375 562.875 l 1
 375 625.375 l 1
 250 625.375 l 1
 250 562.875 l 1025
250 500.375 m 1
 375 500.375 l 1
 375 562.875 l 1
 250 562.875 l 1
 250 500.375 l 1025
250 437.875 m 1
 375 437.875 l 1
 375 500.375 l 1
 250 500.375 l 1
 250 437.875 l 1025
250 375.375 m 1
 375 375.375 l 1
 375 437.875 l 1
 250 437.875 l 1
 250 375.375 l 1025
250 312.875 m 1
 375 312.875 l 1
 375 375.375 l 1
 250 375.375 l 1
 250 312.875 l 1025
250 250.375 m 1
 375 250.375 l 1
 375 312.875 l 1
 250 312.875 l 1
 250 250.375 l 1025
250 187.875 m 1
 375 187.875 l 1
 375 250.375 l 1
 250 250.375 l 1
 250 187.875 l 1025
250 125.375 m 1
 375 125.375 l 1
 375 187.875 l 1
 250 187.875 l 1
 250 125.375 l 1025
250 62.875 m 1
 375 62.875 l 1
 375 125.375 l 1
 250 125.375 l 1
 250 62.875 l 1025
250 0.375 m 1
 250 62.875 l 1
 375 62.875 l 1
 375 0.375 l 1
 250 0.375 l 1
EndSplineSet
EndChar

StartChar: m
Encoding: 109 109 78
Width: 562
VWidth: 875
Flags: HW
LayerCount: 2
Back
Fore
SplineSet
62.5 437.875 m 1
 125 437.875 l 1
 125 500.375 l 1
 62.5 500.375 l 1
 62.5 437.875 l 1025
187.5 437.875 m 1
 250 437.875 l 1
 250 500.375 l 1
 187.5 500.375 l 1
 187.5 437.875 l 1025
312.5 437.875 m 1
 437.5 437.875 l 1
 437.5 500.375 l 1
 312.5 500.375 l 1
 312.5 437.875 l 1025
62.5 375.375 m 1
 187.5 375.375 l 1
 187.5 437.875 l 1
 62.5 437.875 l 1
 62.5 375.375 l 1025
250 375.375 m 1
 312.5 375.375 l 1
 312.5 437.875 l 1
 250 437.875 l 1
 250 375.375 l 1025
375 375.375 m 1
 500 375.375 l 1
 500 437.875 l 1
 375 437.875 l 1
 375 375.375 l 1025
62.5 312.875 m 1
 187.5 312.875 l 1
 187.5 375.375 l 1
 62.5 375.375 l 1
 62.5 312.875 l 1025
250 312.875 m 1
 312.5 312.875 l 1
 312.5 375.375 l 1
 250 375.375 l 1
 250 312.875 l 1025
375 312.875 m 1
 500 312.875 l 1
 500 375.375 l 1
 375 375.375 l 1
 375 312.875 l 1025
62.5 250.375 m 1
 187.5 250.375 l 1
 187.5 312.875 l 1
 62.5 312.875 l 1
 62.5 250.375 l 1025
250 250.375 m 1
 312.5 250.375 l 1
 312.5 312.875 l 1
 250 312.875 l 1
 250 250.375 l 1025
375 250.375 m 1
 500 250.375 l 1
 500 312.875 l 1
 375 312.875 l 1
 375 250.375 l 1025
62.5 187.875 m 1
 187.5 187.875 l 1
 187.5 250.375 l 1
 62.5 250.375 l 1
 62.5 187.875 l 1025
250 187.875 m 1
 312.5 187.875 l 1
 312.5 250.375 l 1
 250 250.375 l 1
 250 187.875 l 1025
375 187.875 m 1
 500 187.875 l 1
 500 250.375 l 1
 375 250.375 l 1
 375 187.875 l 1025
62.5 125.375 m 1
 187.5 125.375 l 1
 187.5 187.875 l 1
 62.5 187.875 l 1
 62.5 125.375 l 1025
250 125.375 m 1
 312.5 125.375 l 1
 312.5 187.875 l 1
 250 187.875 l 1
 250 125.375 l 1025
375 125.375 m 1
 500 125.375 l 1
 500 187.875 l 1
 375 187.875 l 1
 375 125.375 l 1025
62.5 62.875 m 1
 187.5 62.875 l 1
 187.5 125.375 l 1
 62.5 125.375 l 1
 62.5 62.875 l 1025
250 62.875 m 1
 312.5 62.875 l 1
 312.5 125.375 l 1
 250 125.375 l 1
 250 62.875 l 1025
375 62.875 m 1
 500 62.875 l 1
 500 125.375 l 1
 375 125.375 l 1
 375 62.875 l 1025
62.5 0.375 m 1
 187.5 0.375 l 1
 187.5 62.875 l 1
 62.5 62.875 l 1
 62.5 0.375 l 1025
250 0.375 m 1
 312.5 0.375 l 1
 312.5 62.875 l 1
 250 62.875 l 1
 250 0.375 l 1025
375 0.375 m 1
 375 62.875 l 1
 500 62.875 l 1
 500 0.375 l 1
 375 0.375 l 1
EndSplineSet
EndChar

StartChar: n
Encoding: 110 110 79
Width: 562
VWidth: 875
Flags: HW
LayerCount: 2
Back
Fore
SplineSet
62.5 437.875 m 1
 187.5 437.875 l 1
 187.5 500.375 l 1
 62.5 500.375 l 1
 62.5 437.875 l 1025
250 437.875 m 1
 437.5 437.875 l 1
 437.5 500.375 l 1
 250 500.375 l 1
 250 437.875 l 1025
62.5 375.375 m 1
 250 375.375 l 1
 250 437.875 l 1
 62.5 437.875 l 1
 62.5 375.375 l 1025
312.5 375.375 m 1
 500 375.375 l 1
 500 437.875 l 1
 312.5 437.875 l 1
 312.5 375.375 l 1025
62.5 312.875 m 1
 187.5 312.875 l 1
 187.5 375.375 l 1
 62.5 375.375 l 1
 62.5 312.875 l 1025
375 312.875 m 1
 500 312.875 l 1
 500 375.375 l 1
 375 375.375 l 1
 375 312.875 l 1025
62.5 250.375 m 1
 187.5 250.375 l 1
 187.5 312.875 l 1
 62.5 312.875 l 1
 62.5 250.375 l 1025
375 250.375 m 1
 500 250.375 l 1
 500 312.875 l 1
 375 312.875 l 1
 375 250.375 l 1025
62.5 187.875 m 1
 187.5 187.875 l 1
 187.5 250.375 l 1
 62.5 250.375 l 1
 62.5 187.875 l 1025
375 187.875 m 1
 500 187.875 l 1
 500 250.375 l 1
 375 250.375 l 1
 375 187.875 l 1025
62.5 125.375 m 1
 187.5 125.375 l 1
 187.5 187.875 l 1
 62.5 187.875 l 1
 62.5 125.375 l 1025
375 125.375 m 1
 500 125.375 l 1
 500 187.875 l 1
 375 187.875 l 1
 375 125.375 l 1025
62.5 62.875 m 1
 187.5 62.875 l 1
 187.5 125.375 l 1
 62.5 125.375 l 1
 62.5 62.875 l 1025
375 62.875 m 1
 500 62.875 l 1
 500 125.375 l 1
 375 125.375 l 1
 375 62.875 l 1025
62.5 0.375 m 1
 187.5 0.375 l 1
 187.5 62.875 l 1
 62.5 62.875 l 1
 62.5 0.375 l 1025
375 0.375 m 1
 375 62.875 l 1
 500 62.875 l 1
 500 0.375 l 1
 375 0.375 l 1
EndSplineSet
EndChar

StartChar: o
Encoding: 111 111 80
Width: 562
VWidth: 875
Flags: HW
LayerCount: 2
Back
Fore
SplineSet
187.5 437.875 m 1
 375 437.875 l 1
 375 500.375 l 1
 187.5 500.375 l 1
 187.5 437.875 l 1025
125 375.375 m 1
 250 375.375 l 1
 250 437.875 l 1
 125 437.875 l 1
 125 375.375 l 1025
312.5 375.375 m 1
 437.5 375.375 l 1
 437.5 437.875 l 1
 312.5 437.875 l 1
 312.5 375.375 l 1025
62.5 312.875 m 1
 187.5 312.875 l 1
 187.5 375.375 l 1
 62.5 375.375 l 1
 62.5 312.875 l 1025
375 312.875 m 1
 500 312.875 l 1
 500 375.375 l 1
 375 375.375 l 1
 375 312.875 l 1025
62.5 250.375 m 1
 187.5 250.375 l 1
 187.5 312.875 l 1
 62.5 312.875 l 1
 62.5 250.375 l 1025
375 250.375 m 1
 500 250.375 l 1
 500 312.875 l 1
 375 312.875 l 1
 375 250.375 l 1025
62.5 187.875 m 1
 187.5 187.875 l 1
 187.5 250.375 l 1
 62.5 250.375 l 1
 62.5 187.875 l 1025
375 187.875 m 1
 500 187.875 l 1
 500 250.375 l 1
 375 250.375 l 1
 375 187.875 l 1025
62.5 125.375 m 1
 187.5 125.375 l 1
 187.5 187.875 l 1
 62.5 187.875 l 1
 62.5 125.375 l 1025
375 125.375 m 1
 500 125.375 l 1
 500 187.875 l 1
 375 187.875 l 1
 375 125.375 l 1025
125 62.875 m 1
 250 62.875 l 1
 250 125.375 l 1
 125 125.375 l 1
 125 62.875 l 1025
312.5 62.875 m 1
 437.5 62.875 l 1
 437.5 125.375 l 1
 312.5 125.375 l 1
 312.5 62.875 l 1025
187.5 0.375 m 1
 187.5 62.875 l 1
 375 62.875 l 1
 375 0.375 l 1
 187.5 0.375 l 1
EndSplineSet
EndChar

StartChar: p
Encoding: 112 112 81
Width: 562
VWidth: 875
Flags: HW
LayerCount: 2
Back
Fore
SplineSet
62.5 437.875 m 1
 187.5 437.875 l 1
 187.5 500.375 l 1
 62.5 500.375 l 1
 62.5 437.875 l 1025
250 437.875 m 1
 375 437.875 l 1
 375 500.375 l 1
 250 500.375 l 1
 250 437.875 l 1025
62.5 375.375 m 1
 250 375.375 l 1
 250 437.875 l 1
 62.5 437.875 l 1
 62.5 375.375 l 1025
312.5 375.375 m 1
 437.5 375.375 l 1
 437.5 437.875 l 1
 312.5 437.875 l 1
 312.5 375.375 l 1025
62.5 312.875 m 1
 187.5 312.875 l 1
 187.5 375.375 l 1
 62.5 375.375 l 1
 62.5 312.875 l 1025
375 312.875 m 1
 500 312.875 l 1
 500 375.375 l 1
 375 375.375 l 1
 375 312.875 l 1025
62.5 250.375 m 1
 187.5 250.375 l 1
 187.5 312.875 l 1
 62.5 312.875 l 1
 62.5 250.375 l 1025
375 250.375 m 1
 500 250.375 l 1
 500 312.875 l 1
 375 312.875 l 1
 375 250.375 l 1025
62.5 187.875 m 1
 187.5 187.875 l 1
 187.5 250.375 l 1
 62.5 250.375 l 1
 62.5 187.875 l 1025
375 187.875 m 1
 500 187.875 l 1
 500 250.375 l 1
 375 250.375 l 1
 375 187.875 l 1025
62.5 125.375 m 1
 187.5 125.375 l 1
 187.5 187.875 l 1
 62.5 187.875 l 1
 62.5 125.375 l 1025
375 125.375 m 1
 500 125.375 l 1
 500 187.875 l 1
 375 187.875 l 1
 375 125.375 l 1025
62.5 62.875 m 1
 187.5 62.875 l 1
 187.5 125.375 l 1
 62.5 125.375 l 1
 62.5 62.875 l 1025
312.5 62.875 m 1
 437.5 62.875 l 1
 437.5 125.375 l 1
 312.5 125.375 l 1
 312.5 62.875 l 1025
62.5 0.375 m 1
 375 0.375 l 1
 375 62.875 l 1
 62.5 62.875 l 1
 62.5 0.375 l 1025
62.5 -62.125 m 1
 187.5 -62.125 l 1
 187.5 0.375 l 1
 62.5 0.375 l 1
 62.5 -62.125 l 1025
62.5 -124.625 m 1
 62.5 -62.125 l 1
 187.5 -62.125 l 1
 187.5 -124.625 l 1
 62.5 -124.625 l 1
EndSplineSet
EndChar

StartChar: q
Encoding: 113 113 82
Width: 562
VWidth: 875
Flags: HW
LayerCount: 2
Back
Fore
SplineSet
187.5 437.875 m 1
 500 437.875 l 1
 500 500.375 l 1
 187.5 500.375 l 1
 187.5 437.875 l 1025
125 375.375 m 1
 250 375.375 l 1
 250 437.875 l 1
 125 437.875 l 1
 125 375.375 l 1025
375 375.375 m 1
 500 375.375 l 1
 500 437.875 l 1
 375 437.875 l 1
 375 375.375 l 1025
62.5 312.875 m 1
 187.5 312.875 l 1
 187.5 375.375 l 1
 62.5 375.375 l 1
 62.5 312.875 l 1025
375 312.875 m 1
 500 312.875 l 1
 500 375.375 l 1
 375 375.375 l 1
 375 312.875 l 1025
62.5 250.375 m 1
 187.5 250.375 l 1
 187.5 312.875 l 1
 62.5 312.875 l 1
 62.5 250.375 l 1025
375 250.375 m 1
 500 250.375 l 1
 500 312.875 l 1
 375 312.875 l 1
 375 250.375 l 1025
62.5 187.875 m 1
 187.5 187.875 l 1
 187.5 250.375 l 1
 62.5 250.375 l 1
 62.5 187.875 l 1025
375 187.875 m 1
 500 187.875 l 1
 500 250.375 l 1
 375 250.375 l 1
 375 187.875 l 1025
62.5 125.375 m 1
 187.5 125.375 l 1
 187.5 187.875 l 1
 62.5 187.875 l 1
 62.5 125.375 l 1025
375 125.375 m 1
 500 125.375 l 1
 500 187.875 l 1
 375 187.875 l 1
 375 125.375 l 1025
125 62.875 m 1
 250 62.875 l 1
 250 125.375 l 1
 125 125.375 l 1
 125 62.875 l 1025
312.5 62.875 m 1
 500 62.875 l 1
 500 125.375 l 1
 312.5 125.375 l 1
 312.5 62.875 l 1025
187.5 0.375 m 1
 312.5 0.375 l 1
 312.5 62.875 l 1
 187.5 62.875 l 1
 187.5 0.375 l 1025
375 0.375 m 1
 500 0.375 l 1
 500 62.875 l 1
 375 62.875 l 1
 375 0.375 l 1025
375 -62.125 m 1
 500 -62.125 l 1
 500 0.375 l 1
 375 0.375 l 1
 375 -62.125 l 1025
375 -124.625 m 1
 375 -62.125 l 1
 500 -62.125 l 1
 500 -124.625 l 1
 375 -124.625 l 1
EndSplineSet
EndChar

StartChar: r
Encoding: 114 114 83
Width: 562
VWidth: 875
Flags: HW
LayerCount: 2
Back
Fore
SplineSet
125 437.875 m 1
 250 437.875 l 1
 250 500.375 l 1
 125 500.375 l 1
 125 437.875 l 1025
375 437.875 m 1
 500 437.875 l 1
 500 500.375 l 1
 375 500.375 l 1
 375 437.875 l 1025
125 375.375 m 1
 250 375.375 l 1
 250 437.875 l 1
 125 437.875 l 1
 125 375.375 l 1025
312.5 375.375 m 1
 500 375.375 l 1
 500 437.875 l 1
 312.5 437.875 l 1
 312.5 375.375 l 1025
125 312.875 m 1
 312.5 312.875 l 1
 312.5 375.375 l 1
 125 375.375 l 1
 125 312.875 l 1025
437.5 312.875 m 1
 500 312.875 l 1
 500 375.375 l 1
 437.5 375.375 l 1
 437.5 312.875 l 1025
125 250.375 m 1
 250 250.375 l 1
 250 312.875 l 1
 125 312.875 l 1
 125 250.375 l 1025
125 187.875 m 1
 250 187.875 l 1
 250 250.375 l 1
 125 250.375 l 1
 125 187.875 l 1025
125 125.375 m 1
 250 125.375 l 1
 250 187.875 l 1
 125 187.875 l 1
 125 125.375 l 1025
125 62.875 m 1
 250 62.875 l 1
 250 125.375 l 1
 125 125.375 l 1
 125 62.875 l 1025
125 0.375 m 1
 125 62.875 l 1
 250 62.875 l 1
 250 0.375 l 1
 125 0.375 l 1
EndSplineSet
EndChar

StartChar: s
Encoding: 115 115 84
Width: 562
VWidth: 875
Flags: HW
LayerCount: 2
Back
Fore
SplineSet
125 437.875 m 1
 437.5 437.875 l 1
 437.5 500.375 l 1
 125 500.375 l 1
 125 437.875 l 1025
62.5 375.375 m 1
 187.5 375.375 l 1
 187.5 437.875 l 1
 62.5 437.875 l 1
 62.5 375.375 l 1025
375 375.375 m 1
 500 375.375 l 1
 500 437.875 l 1
 375 437.875 l 1
 375 375.375 l 1025
62.5 312.875 m 1
 187.5 312.875 l 1
 187.5 375.375 l 1
 62.5 375.375 l 1
 62.5 312.875 l 1025
62.5 250.375 m 1
 375 250.375 l 1
 375 312.875 l 1
 62.5 312.875 l 1
 62.5 250.375 l 1025
187.5 187.875 m 1
 500 187.875 l 1
 500 250.375 l 1
 187.5 250.375 l 1
 187.5 187.875 l 1025
375 125.375 m 1
 500 125.375 l 1
 500 187.875 l 1
 375 187.875 l 1
 375 125.375 l 1025
62.5 62.875 m 1
 187.5 62.875 l 1
 187.5 125.375 l 1
 62.5 125.375 l 1
 62.5 62.875 l 1025
375 62.875 m 1
 500 62.875 l 1
 500 125.375 l 1
 375 125.375 l 1
 375 62.875 l 1025
125 0.375 m 1
 125 62.875 l 1
 437.5 62.875 l 1
 437.5 0.375 l 1
 125 0.375 l 1
EndSplineSet
EndChar

StartChar: t
Encoding: 116 116 85
Width: 562
VWidth: 875
Flags: HW
LayerCount: 2
Back
Fore
SplineSet
187.5 562.875 m 1
 312.5 562.875 l 1
 312.5 625.375 l 1
 187.5 625.375 l 1
 187.5 562.875 l 1025
187.5 500.375 m 1
 312.5 500.375 l 1
 312.5 562.875 l 1
 187.5 562.875 l 1
 187.5 500.375 l 1025
62.5 437.875 m 1
 500 437.875 l 1
 500 500.375 l 1
 62.5 500.375 l 1
 62.5 437.875 l 1025
187.5 375.375 m 1
 312.5 375.375 l 1
 312.5 437.875 l 1
 187.5 437.875 l 1
 187.5 375.375 l 1025
187.5 312.875 m 1
 312.5 312.875 l 1
 312.5 375.375 l 1
 187.5 375.375 l 1
 187.5 312.875 l 1025
187.5 250.375 m 1
 312.5 250.375 l 1
 312.5 312.875 l 1
 187.5 312.875 l 1
 187.5 250.375 l 1025
187.5 187.875 m 1
 312.5 187.875 l 1
 312.5 250.375 l 1
 187.5 250.375 l 1
 187.5 187.875 l 1025
187.5 125.375 m 1
 312.5 125.375 l 1
 312.5 187.875 l 1
 187.5 187.875 l 1
 187.5 125.375 l 1025
187.5 62.875 m 1
 312.5 62.875 l 1
 312.5 125.375 l 1
 187.5 125.375 l 1
 187.5 62.875 l 1025
250 0.375 m 1
 250 62.875 l 1
 500 62.875 l 1
 500 0.375 l 1
 250 0.375 l 1
EndSplineSet
EndChar

StartChar: u
Encoding: 117 117 86
Width: 562
VWidth: 875
Flags: HW
LayerCount: 2
Back
Fore
SplineSet
62.5 437.875 m 1
 187.5 437.875 l 1
 187.5 500.375 l 1
 62.5 500.375 l 1
 62.5 437.875 l 1025
375 437.875 m 1
 500 437.875 l 1
 500 500.375 l 1
 375 500.375 l 1
 375 437.875 l 1025
62.5 375.375 m 1
 187.5 375.375 l 1
 187.5 437.875 l 1
 62.5 437.875 l 1
 62.5 375.375 l 1025
375 375.375 m 1
 500 375.375 l 1
 500 437.875 l 1
 375 437.875 l 1
 375 375.375 l 1025
62.5 312.875 m 1
 187.5 312.875 l 1
 187.5 375.375 l 1
 62.5 375.375 l 1
 62.5 312.875 l 1025
375 312.875 m 1
 500 312.875 l 1
 500 375.375 l 1
 375 375.375 l 1
 375 312.875 l 1025
62.5 250.375 m 1
 187.5 250.375 l 1
 187.5 312.875 l 1
 62.5 312.875 l 1
 62.5 250.375 l 1025
375 250.375 m 1
 500 250.375 l 1
 500 312.875 l 1
 375 312.875 l 1
 375 250.375 l 1025
62.5 187.875 m 1
 187.5 187.875 l 1
 187.5 250.375 l 1
 62.5 250.375 l 1
 62.5 187.875 l 1025
375 187.875 m 1
 500 187.875 l 1
 500 250.375 l 1
 375 250.375 l 1
 375 187.875 l 1025
62.5 125.375 m 1
 187.5 125.375 l 1
 187.5 187.875 l 1
 62.5 187.875 l 1
 62.5 125.375 l 1025
375 125.375 m 1
 500 125.375 l 1
 500 187.875 l 1
 375 187.875 l 1
 375 125.375 l 1025
62.5 62.875 m 1
 250 62.875 l 1
 250 125.375 l 1
 62.5 125.375 l 1
 62.5 62.875 l 1025
312.5 62.875 m 1
 500 62.875 l 1
 500 125.375 l 1
 312.5 125.375 l 1
 312.5 62.875 l 1025
125 0.375 m 1
 312.5 0.375 l 1
 312.5 62.875 l 1
 125 62.875 l 1
 125 0.375 l 1025
375 0.375 m 1
 375 62.875 l 1
 500 62.875 l 1
 500 0.375 l 1
 375 0.375 l 1
EndSplineSet
EndChar

StartChar: v
Encoding: 118 118 87
Width: 562
VWidth: 875
Flags: HW
LayerCount: 2
Back
Fore
SplineSet
62.5 437.875 m 1
 187.5 437.875 l 1
 187.5 500.375 l 1
 62.5 500.375 l 1
 62.5 437.875 l 1025
375 437.875 m 1
 500 437.875 l 1
 500 500.375 l 1
 375 500.375 l 1
 375 437.875 l 1025
62.5 375.375 m 1
 187.5 375.375 l 1
 187.5 437.875 l 1
 62.5 437.875 l 1
 62.5 375.375 l 1025
375 375.375 m 1
 500 375.375 l 1
 500 437.875 l 1
 375 437.875 l 1
 375 375.375 l 1025
62.5 312.875 m 1
 187.5 312.875 l 1
 187.5 375.375 l 1
 62.5 375.375 l 1
 62.5 312.875 l 1025
375 312.875 m 1
 500 312.875 l 1
 500 375.375 l 1
 375 375.375 l 1
 375 312.875 l 1025
125 250.375 m 1
 250 250.375 l 1
 250 312.875 l 1
 125 312.875 l 1
 125 250.375 l 1025
312.5 250.375 m 1
 437.5 250.375 l 1
 437.5 312.875 l 1
 312.5 312.875 l 1
 312.5 250.375 l 1025
125 187.875 m 1
 250 187.875 l 1
 250 250.375 l 1
 125 250.375 l 1
 125 187.875 l 1025
312.5 187.875 m 1
 437.5 187.875 l 1
 437.5 250.375 l 1
 312.5 250.375 l 1
 312.5 187.875 l 1025
125 125.375 m 1
 250 125.375 l 1
 250 187.875 l 1
 125 187.875 l 1
 125 125.375 l 1025
312.5 125.375 m 1
 375 125.375 l 1
 375 187.875 l 1
 312.5 187.875 l 1
 312.5 125.375 l 1025
187.5 62.875 m 1
 375 62.875 l 1
 375 125.375 l 1
 187.5 125.375 l 1
 187.5 62.875 l 1025
187.5 0.375 m 1
 187.5 62.875 l 1
 312.5 62.875 l 1
 312.5 0.375 l 1
 187.5 0.375 l 1
EndSplineSet
EndChar

StartChar: w
Encoding: 119 119 88
Width: 562
VWidth: 875
Flags: HW
LayerCount: 2
Back
Fore
SplineSet
62.5 437.875 m 1
 187.5 437.875 l 1
 187.5 500.375 l 1
 62.5 500.375 l 1
 62.5 437.875 l 1025
500 437.875 m 1
 562.5 437.875 l 1
 562.5 500.375 l 1
 500 500.375 l 1
 500 437.875 l 1025
62.5 375.375 m 1
 187.5 375.375 l 1
 187.5 437.875 l 1
 62.5 437.875 l 1
 62.5 375.375 l 1025
500 375.375 m 1
 562.5 375.375 l 1
 562.5 437.875 l 1
 500 437.875 l 1
 500 375.375 l 1025
62.5 312.875 m 1
 187.5 312.875 l 1
 187.5 375.375 l 1
 62.5 375.375 l 1
 62.5 312.875 l 1025
312.5 312.875 m 1
 375 312.875 l 1
 375 375.375 l 1
 312.5 375.375 l 1
 312.5 312.875 l 1025
500 312.875 m 1
 562.5 312.875 l 1
 562.5 375.375 l 1
 500 375.375 l 1
 500 312.875 l 1025
62.5 250.375 m 1
 187.5 250.375 l 1
 187.5 312.875 l 1
 62.5 312.875 l 1
 62.5 250.375 l 1025
250 250.375 m 1
 437.5 250.375 l 1
 437.5 312.875 l 1
 250 312.875 l 1
 250 250.375 l 1025
500 250.375 m 1
 562.5 250.375 l 1
 562.5 312.875 l 1
 500 312.875 l 1
 500 250.375 l 1025
62.5 187.875 m 1
 187.5 187.875 l 1
 187.5 250.375 l 1
 62.5 250.375 l 1
 62.5 187.875 l 1025
250 187.875 m 1
 437.5 187.875 l 1
 437.5 250.375 l 1
 250 250.375 l 1
 250 187.875 l 1025
500 187.875 m 1
 562.5 187.875 l 1
 562.5 250.375 l 1
 500 250.375 l 1
 500 187.875 l 1025
125 125.375 m 1
 250 125.375 l 1
 250 187.875 l 1
 125 187.875 l 1
 125 125.375 l 1025
375 125.375 m 1
 500 125.375 l 1
 500 187.875 l 1
 375 187.875 l 1
 375 125.375 l 1025
125 62.875 m 1
 250 62.875 l 1
 250 125.375 l 1
 125 125.375 l 1
 125 62.875 l 1025
375 62.875 m 1
 500 62.875 l 1
 500 125.375 l 1
 375 125.375 l 1
 375 62.875 l 1025
125 0.375 m 1
 250 0.375 l 1
 250 62.875 l 1
 125 62.875 l 1
 125 0.375 l 1025
375 0.375 m 1
 375 62.875 l 1
 500 62.875 l 1
 500 0.375 l 1
 375 0.375 l 1
EndSplineSet
EndChar

StartChar: x
Encoding: 120 120 89
Width: 562
VWidth: 875
Flags: HW
LayerCount: 2
Back
Fore
SplineSet
62.5 437.875 m 1
 187.5 437.875 l 1
 187.5 500.375 l 1
 62.5 500.375 l 1
 62.5 437.875 l 1025
375 437.875 m 1
 500 437.875 l 1
 500 500.375 l 1
 375 500.375 l 1
 375 437.875 l 1025
62.5 375.375 m 1
 187.5 375.375 l 1
 187.5 437.875 l 1
 62.5 437.875 l 1
 62.5 375.375 l 1025
375 375.375 m 1
 500 375.375 l 1
 500 437.875 l 1
 375 437.875 l 1
 375 375.375 l 1025
125 312.875 m 1
 250 312.875 l 1
 250 375.375 l 1
 125 375.375 l 1
 125 312.875 l 1025
375 312.875 m 1
 437.5 312.875 l 1
 437.5 375.375 l 1
 375 375.375 l 1
 375 312.875 l 1025
187.5 250.375 m 1
 375 250.375 l 1
 375 312.875 l 1
 187.5 312.875 l 1
 187.5 250.375 l 1025
187.5 187.875 m 1
 375 187.875 l 1
 375 250.375 l 1
 187.5 250.375 l 1
 187.5 187.875 l 1025
125 125.375 m 1
 187.5 125.375 l 1
 187.5 187.875 l 1
 125 187.875 l 1
 125 125.375 l 1025
312.5 125.375 m 1
 437.5 125.375 l 1
 437.5 187.875 l 1
 312.5 187.875 l 1
 312.5 125.375 l 1025
62.5 62.875 m 1
 187.5 62.875 l 1
 187.5 125.375 l 1
 62.5 125.375 l 1
 62.5 62.875 l 1025
375 62.875 m 1
 500 62.875 l 1
 500 125.375 l 1
 375 125.375 l 1
 375 62.875 l 1025
62.5 0.375 m 1
 187.5 0.375 l 1
 187.5 62.875 l 1
 62.5 62.875 l 1
 62.5 0.375 l 1025
375 0.375 m 1
 375 62.875 l 1
 500 62.875 l 1
 500 0.375 l 1
 375 0.375 l 1
EndSplineSet
EndChar

StartChar: y
Encoding: 121 121 90
Width: 562
VWidth: 875
Flags: HW
LayerCount: 2
Back
Fore
SplineSet
62.5 437.875 m 1
 187.5 437.875 l 1
 187.5 500.375 l 1
 62.5 500.375 l 1
 62.5 437.875 l 1025
375 437.875 m 1
 500 437.875 l 1
 500 500.375 l 1
 375 500.375 l 1
 375 437.875 l 1025
62.5 375.375 m 1
 187.5 375.375 l 1
 187.5 437.875 l 1
 62.5 437.875 l 1
 62.5 375.375 l 1025
375 375.375 m 1
 500 375.375 l 1
 500 437.875 l 1
 375 437.875 l 1
 375 375.375 l 1025
62.5 312.875 m 1
 187.5 312.875 l 1
 187.5 375.375 l 1
 62.5 375.375 l 1
 62.5 312.875 l 1025
375 312.875 m 1
 500 312.875 l 1
 500 375.375 l 1
 375 375.375 l 1
 375 312.875 l 1025
125 250.375 m 1
 250 250.375 l 1
 250 312.875 l 1
 125 312.875 l 1
 125 250.375 l 1025
312.5 250.375 m 1
 437.5 250.375 l 1
 437.5 312.875 l 1
 312.5 312.875 l 1
 312.5 250.375 l 1025
125 187.875 m 1
 250 187.875 l 1
 250 250.375 l 1
 125 250.375 l 1
 125 187.875 l 1025
312.5 187.875 m 1
 437.5 187.875 l 1
 437.5 250.375 l 1
 312.5 250.375 l 1
 312.5 187.875 l 1025
187.5 125.375 m 1
 375 125.375 l 1
 375 187.875 l 1
 187.5 187.875 l 1
 187.5 125.375 l 1025
187.5 62.875 m 1
 312.5 62.875 l 1
 312.5 125.375 l 1
 187.5 125.375 l 1
 187.5 62.875 l 1025
187.5 0.375 m 1
 312.5 0.375 l 1
 312.5 62.875 l 1
 187.5 62.875 l 1
 187.5 0.375 l 1025
125 -62.125 m 1
 250 -62.125 l 1
 250 0.375 l 1
 125 0.375 l 1
 125 -62.125 l 1025
125 -124.625 m 1
 125 -62.125 l 1
 250 -62.125 l 1
 250 -124.625 l 1
 125 -124.625 l 1
EndSplineSet
EndChar

StartChar: z
Encoding: 122 122 91
Width: 562
VWidth: 875
Flags: HW
LayerCount: 2
Back
Fore
SplineSet
62.5 437.875 m 1
 500 437.875 l 1
 500 500.375 l 1
 62.5 500.375 l 1
 62.5 437.875 l 1025
375 375.375 m 1
 500 375.375 l 1
 500 437.875 l 1
 375 437.875 l 1
 375 375.375 l 1025
312.5 312.875 m 1
 437.5 312.875 l 1
 437.5 375.375 l 1
 312.5 375.375 l 1
 312.5 312.875 l 1025
250 250.375 m 1
 375 250.375 l 1
 375 312.875 l 1
 250 312.875 l 1
 250 250.375 l 1025
187.5 187.875 m 1
 312.5 187.875 l 1
 312.5 250.375 l 1
 187.5 250.375 l 1
 187.5 187.875 l 1025
125 125.375 m 1
 250 125.375 l 1
 250 187.875 l 1
 125 187.875 l 1
 125 125.375 l 1025
62.5 62.875 m 1
 187.5 62.875 l 1
 187.5 125.375 l 1
 62.5 125.375 l 1
 62.5 62.875 l 1025
62.5 0.375 m 1
 62.5 62.875 l 1
 500 62.875 l 1
 500 0.375 l 1
 62.5 0.375 l 1
EndSplineSet
EndChar

StartChar: braceleft
Encoding: 123 123 92
Width: 562
VWidth: 875
Flags: HW
LayerCount: 2
Back
Fore
SplineSet
250 625.375 m 1
 500 625.375 l 1
 500 687.875 l 1
 250 687.875 l 1
 250 625.375 l 1025
187.5 562.875 m 1
 312.5 562.875 l 1
 312.5 625.375 l 1
 187.5 625.375 l 1
 187.5 562.875 l 1025
187.5 500.375 m 1
 312.5 500.375 l 1
 312.5 562.875 l 1
 187.5 562.875 l 1
 187.5 500.375 l 1025
250 437.875 m 1
 375 437.875 l 1
 375 500.375 l 1
 250 500.375 l 1
 250 437.875 l 1025
312.5 375.375 m 1
 375 375.375 l 1
 375 437.875 l 1
 312.5 437.875 l 1
 312.5 375.375 l 1025
125 312.875 m 1
 312.5 312.875 l 1
 312.5 375.375 l 1
 125 375.375 l 1
 125 312.875 l 1025
312.5 250.375 m 1
 375 250.375 l 1
 375 312.875 l 1
 312.5 312.875 l 1
 312.5 250.375 l 1025
250 187.875 m 1
 375 187.875 l 1
 375 250.375 l 1
 250 250.375 l 1
 250 187.875 l 1025
187.5 125.375 m 1
 312.5 125.375 l 1
 312.5 187.875 l 1
 187.5 187.875 l 1
 187.5 125.375 l 1025
187.5 62.875 m 1
 312.5 62.875 l 1
 312.5 125.375 l 1
 187.5 125.375 l 1
 187.5 62.875 l 1025
187.5 0.375 m 1
 312.5 0.375 l 1
 312.5 62.875 l 1
 187.5 62.875 l 1
 187.5 0.375 l 1025
250 -62.125 m 1
 250 0.375 l 1
 500 0.375 l 1
 500 -62.125 l 1
 250 -62.125 l 1
EndSplineSet
EndChar

StartChar: bar
Encoding: 124 124 93
Width: 562
VWidth: 875
Flags: HW
LayerCount: 2
Back
Fore
SplineSet
250 625.375 m 1
 375 625.375 l 1
 375 687.875 l 1
 250 687.875 l 1
 250 625.375 l 1025
250 562.875 m 1
 375 562.875 l 1
 375 625.375 l 1
 250 625.375 l 1
 250 562.875 l 1025
250 500.375 m 1
 375 500.375 l 1
 375 562.875 l 1
 250 562.875 l 1
 250 500.375 l 1025
250 437.875 m 1
 375 437.875 l 1
 375 500.375 l 1
 250 500.375 l 1
 250 437.875 l 1025
250 375.375 m 1
 375 375.375 l 1
 375 437.875 l 1
 250 437.875 l 1
 250 375.375 l 1025
250 312.875 m 1
 375 312.875 l 1
 375 375.375 l 1
 250 375.375 l 1
 250 312.875 l 1025
250 250.375 m 1
 375 250.375 l 1
 375 312.875 l 1
 250 312.875 l 1
 250 250.375 l 1025
250 187.875 m 1
 375 187.875 l 1
 375 250.375 l 1
 250 250.375 l 1
 250 187.875 l 1025
250 125.375 m 1
 375 125.375 l 1
 375 187.875 l 1
 250 187.875 l 1
 250 125.375 l 1025
250 62.875 m 1
 375 62.875 l 1
 375 125.375 l 1
 250 125.375 l 1
 250 62.875 l 1025
250 0.375 m 1
 375 0.375 l 1
 375 62.875 l 1
 250 62.875 l 1
 250 0.375 l 1025
250 -62.125 m 1
 250 0.375 l 1
 375 0.375 l 1
 375 -62.125 l 1
 250 -62.125 l 1
EndSplineSet
EndChar

StartChar: braceright
Encoding: 125 125 94
Width: 562
VWidth: 875
Flags: HW
LayerCount: 2
Back
Fore
SplineSet
62.5 625.375 m 1
 312.5 625.375 l 1
 312.5 687.875 l 1
 62.5 687.875 l 1
 62.5 625.375 l 1025
250 562.875 m 1
 375 562.875 l 1
 375 625.375 l 1
 250 625.375 l 1
 250 562.875 l 1025
250 500.375 m 1
 375 500.375 l 1
 375 562.875 l 1
 250 562.875 l 1
 250 500.375 l 1025
187.5 437.875 m 1
 312.5 437.875 l 1
 312.5 500.375 l 1
 187.5 500.375 l 1
 187.5 437.875 l 1025
187.5 375.375 m 1
 250 375.375 l 1
 250 437.875 l 1
 187.5 437.875 l 1
 187.5 375.375 l 1025
250 312.875 m 1
 437.5 312.875 l 1
 437.5 375.375 l 1
 250 375.375 l 1
 250 312.875 l 1025
187.5 250.375 m 1
 250 250.375 l 1
 250 312.875 l 1
 187.5 312.875 l 1
 187.5 250.375 l 1025
187.5 187.875 m 1
 312.5 187.875 l 1
 312.5 250.375 l 1
 187.5 250.375 l 1
 187.5 187.875 l 1025
250 125.375 m 1
 375 125.375 l 1
 375 187.875 l 1
 250 187.875 l 1
 250 125.375 l 1025
250 62.875 m 1
 375 62.875 l 1
 375 125.375 l 1
 250 125.375 l 1
 250 62.875 l 1025
250 0.375 m 1
 375 0.375 l 1
 375 62.875 l 1
 250 62.875 l 1
 250 0.375 l 1025
62.5 -62.125 m 1
 62.5 0.375 l 1
 312.5 0.375 l 1
 312.5 -62.125 l 1
 62.5 -62.125 l 1
EndSplineSet
EndChar

StartChar: asciitilde
Encoding: 126 126 95
Width: 562
VWidth: 875
Flags: HW
LayerCount: 2
Back
Fore
SplineSet
125 312.875 m 1
 312.5 312.875 l 1
 312.5 375.375 l 1
 125 375.375 l 1
 125 312.875 l 1025
437.5 312.875 m 1
 500 312.875 l 1
 500 375.375 l 1
 437.5 375.375 l 1
 437.5 312.875 l 1025
62.5 250.375 m 1
 125 250.375 l 1
 125 312.875 l 1
 62.5 312.875 l 1
 62.5 250.375 l 1025
187.5 250.375 m 1
 375 250.375 l 1
 375 312.875 l 1
 187.5 312.875 l 1
 187.5 250.375 l 1025
437.5 250.375 m 1
 500 250.375 l 1
 500 312.875 l 1
 437.5 312.875 l 1
 437.5 250.375 l 1025
62.5 187.875 m 1
 125 187.875 l 1
 125 250.375 l 1
 62.5 250.375 l 1
 62.5 187.875 l 1025
250 187.875 m 1
 250 250.375 l 1
 437.5 250.375 l 1
 437.5 187.875 l 1
 250 187.875 l 1
EndSplineSet
EndChar

StartChar: hyphen
Encoding: 45 45 109
Width: 562
VWidth: 875
Flags: HW
LayerCount: 2
Back
Fore
SplineSet
187.5 250.375 m 1
 437.5 250.375 l 1
 437.5 312.875 l 1
 187.5 312.875 l 1
 187.5 250.375 l 1025
187.5 187.875 m 1
 187.5 250.375 l 1
 437.5 250.375 l 1
 437.5 187.875 l 1
 187.5 187.875 l 1
EndSplineSet
EndChar

